<?xml version="1.0" encoding="utf-8"?>
<!-- Generator: Adobe Illustrator 16.0.0, SVG Export Plug-In . SVG Version: 6.00 Build 0)  -->
<!DOCTYPE svg PUBLIC "-//W3C//DTD SVG 1.1//EN" "http://www.w3.org/Graphics/SVG/1.1/DTD/svg11.dtd">
<svg version="1.1" id="Layer_1" xmlns="http://www.w3.org/2000/svg" xmlns:xlink="http://www.w3.org/1999/xlink" x="0px" y="0px"
	 width="164px" height="170px" viewBox="0 0 164 170" enable-background="new 0 0 164 170" xml:space="preserve">
<g>
	<path fill="#FFFFFF" d="M93.113,130.566c-0.219,0-0.437-0.096-0.582-0.277L36.754,61.131c-7.961-1.743-14.795-6.459-19.263-13.301
		c-4.519-6.919-6.072-15.178-4.374-23.255C16.104,10.335,28.823,0,43.357,0c2.132,0,4.281,0.225,6.386,0.667
		C66.34,4.161,77.038,20.439,73.696,37.032l38.91,80.254c0.166,0.34,0.052,0.748-0.266,0.953l-18.818,12.206
		C93.395,130.527,93.254,130.566,93.113,130.566z M43.357,1.495c-13.831,0-25.934,9.836-28.777,23.387
		c-1.616,7.687-0.138,15.546,4.163,22.13c4.299,6.583,10.898,11.097,18.581,12.711c0.168,0.036,0.32,0.128,0.428,0.262l55.52,68.839
		l17.699-11.48L72.24,37.456c-0.073-0.149-0.093-0.318-0.059-0.48c3.332-15.872-6.872-31.504-22.745-34.847
		C47.432,1.709,45.387,1.495,43.357,1.495z"/>
	<path fill="#FFFFFF" d="M46.001,72.306c-0.242,0-0.48-0.117-0.624-0.334c-0.229-0.344-0.134-0.808,0.21-1.036l33.136-21.971
		c0.342-0.229,0.808-0.135,1.036,0.209c0.229,0.344,0.135,0.809-0.209,1.037l-33.136,21.97
		C46.287,72.266,46.143,72.306,46.001,72.306z"/>
	<path fill="#FFFFFF" d="M37.17,61.204c-0.243,0-0.482-0.119-0.625-0.337c-0.227-0.346-0.13-0.809,0.215-1.036l35.694-23.416
		c0.347-0.227,0.81-0.129,1.036,0.215c0.227,0.346,0.13,0.809-0.215,1.036L37.581,61.081C37.454,61.164,37.312,61.204,37.17,61.204z
		"/>
	<path fill="#FFFFFF" d="M125.872,170c-0.138,0-0.276-0.039-0.401-0.12c-0.25-0.163-6.062-4.202-4.047-25.476
		c-13.222-6.232-19.669-18.924-19.939-19.467c-0.186-0.369-0.033-0.818,0.336-1.002c0.369-0.186,0.818-0.035,1.003,0.334
		c0.063,0.127,6.337,12.455,18.767,18.556c1.072-9.175,3.93-15.563,8.715-19.515c3.202-2.639,7.816-3.59,12.045-2.484
		c4.17,1.091,7.455,4.02,9.012,8.033c1.613,4.172,1.553,8.082-0.172,11.314c-1.801,3.379-5.459,5.979-9.785,6.955
		c-5.506,1.223-12.514,0.421-18.535-2.083c-1.773,19.688,3.375,23.55,3.429,23.587c0.334,0.233,0.425,0.696,0.196,1.034
		C126.348,169.882,126.111,170,125.872,170z M123.02,143.486c5.842,2.533,12.711,3.371,18.058,2.185
		c3.903-0.882,7.192-3.198,8.793-6.2c1.534-2.877,1.567-6.266,0.097-10.068c-1.402-3.615-4.242-6.146-7.994-7.129
		c-3.774-0.985-7.88-0.147-10.718,2.191C126.698,128.227,124.001,134.451,123.02,143.486z"/>
	<path fill="#FFFFFF" d="M71.462,82.433c-3.875,0-7.029-3.148-7.029-7.018c0-3.876,3.153-7.029,7.029-7.029
		c3.879,0,7.034,3.153,7.034,7.029C78.496,79.284,75.341,82.433,71.462,82.433z M71.462,69.881c-3.051,0-5.533,2.482-5.533,5.534
		c0,3.045,2.482,5.522,5.533,5.522c3.054,0,5.539-2.478,5.539-5.522C77,72.363,74.516,69.881,71.462,69.881z"/>
</g>
</svg>
