<?xml version="1.0" encoding="utf-8"?>
<!-- Generator: Adobe Illustrator 16.0.0, SVG Export Plug-In . SVG Version: 6.00 Build 0)  -->
<!DOCTYPE svg PUBLIC "-//W3C//DTD SVG 1.1//EN" "http://www.w3.org/Graphics/SVG/1.1/DTD/svg11.dtd">
<svg version="1.1" id="Layer_1" xmlns="http://www.w3.org/2000/svg" xmlns:xlink="http://www.w3.org/1999/xlink" x="0px" y="0px"
	 width="164px" height="170px" viewBox="0 0 164 170" enable-background="new 0 0 164 170" xml:space="preserve">
<g>
	<path fill="#FFFFFF" d="M151.289,11.651H12.711C5.702,11.651,0,17.354,0,24.363v121.275c0,7.009,5.702,12.711,12.711,12.711
		h138.578c7.009,0,12.711-5.702,12.711-12.711V24.363C164,17.354,158.298,11.651,151.289,11.651z M162.505,145.638
		c0,6.184-5.032,11.216-11.216,11.216H12.711c-6.185,0-11.216-5.032-11.216-11.216V24.363c0-6.185,5.031-11.216,11.216-11.216
		h138.578c6.184,0,11.216,5.031,11.216,11.216V145.638z"/>
	<path fill="#FFFFFF" d="M69.949,69.271c-8.53,0-15.471,6.94-15.471,15.471c0,8.531,6.94,15.472,15.471,15.472
		c8.531,0,15.47-6.94,15.47-15.472C85.419,76.211,78.479,69.271,69.949,69.271z M69.949,98.718c-7.706,0-13.975-6.269-13.975-13.976
		c0-7.706,6.269-13.975,13.975-13.975s13.975,6.269,13.975,13.975C83.924,92.449,77.655,98.718,69.949,98.718z"/>
	<path fill="#FFFFFF" d="M69.949,58.803c-14.304,0-25.941,11.636-25.941,25.939c0,14.304,11.637,25.941,25.941,25.941
		c14.303,0,25.94-11.638,25.94-25.941C95.889,70.439,84.252,58.803,69.949,58.803z M69.949,109.188
		c-13.479,0-24.445-10.966-24.445-24.445c0-13.479,10.966-24.444,24.445-24.444c13.479,0,24.444,10.966,24.444,24.444
		C94.393,98.222,83.428,109.188,69.949,109.188z"/>
	<path fill="#FFFFFF" d="M21.527,136.671H10.73c-0.413,0-0.748,0.335-0.748,0.747c0,0.413,0.335,0.748,0.748,0.748h10.797
		c0.413,0,0.748-0.335,0.748-0.748C22.275,137.006,21.94,136.671,21.527,136.671z"/>
	<path fill="#FFFFFF" d="M21.527,143.54H10.73c-0.413,0-0.748,0.335-0.748,0.748s0.335,0.748,0.748,0.748h10.797
		c0.413,0,0.748-0.335,0.748-0.748S21.94,143.54,21.527,143.54z"/>
	<path fill="#FFFFFF" d="M136.691,16.27c-10.694,0-19.396,8.701-19.396,19.397c0,9.007,6.181,16.578,14.517,18.75
		c-1.111,4.639-2.753,10.74-5.009,17.338c-5.922-25.93-29.156-45.343-56.855-45.343c-32.163,0-58.33,26.167-58.33,58.33
		c0,32.164,26.167,58.332,58.33,58.332c32.164,0,58.331-26.168,58.331-58.332c0-3.436-0.315-6.798-0.889-10.072
		c0.625-1.738,1.201-3.424,1.721-5.025c1.829-5.637,3.201-10.823,4.172-14.9c1.108,0.198,2.243,0.319,3.408,0.319
		c10.696,0,19.397-8.701,19.397-19.396C156.089,24.971,147.388,16.27,136.691,16.27z M126.783,84.742
		c0,31.34-25.495,56.836-56.834,56.836c-31.338,0-56.834-25.496-56.834-56.836c0-31.338,25.496-56.835,56.834-56.835
		c27.84,0,51.051,20.126,55.891,46.589c-4.174,11.558-10.2,24.191-18.498,32.986l-0.514-0.605c-0.709-0.839-1.75-1.318-2.855-1.318
		c-0.885,0-1.741,0.313-2.413,0.882l-10.163,8.615c-1.571,1.333-1.768,3.697-0.435,5.271l2.189,2.582
		c0.71,0.838,1.751,1.318,2.855,1.318c0.886,0,1.742-0.313,2.414-0.883l10.163-8.614c1.571-1.333,1.766-3.696,0.435-5.27
		l-0.708-0.835c8.085-8.517,13.983-20.521,18.004-31.057C126.612,79.92,126.783,82.311,126.783,84.742z M107.877,110.427
		c0.8,0.944,0.683,2.362-0.261,3.162l-10.163,8.614c-0.901,0.767-2.395,0.644-3.16-0.262l-2.19-2.582
		c-0.799-0.944-0.682-2.363,0.262-3.162l10.163-8.615c0.401-0.341,0.914-0.528,1.445-0.528c0.664,0,1.289,0.287,1.715,0.79
		L107.877,110.427z M136.691,53.567c-1.048,0-2.068-0.109-3.067-0.282c0.807-3.511,1.272-5.996,1.441-6.935l6.856,1.289
		c0.047,0.009,0.094,0.013,0.139,0.013c0.353,0,0.666-0.25,0.734-0.609l3.466-18.436c0.036-0.196-0.006-0.396-0.117-0.561
		c-0.112-0.164-0.284-0.276-0.479-0.312l-14.528-2.73c-0.41-0.08-0.797,0.19-0.874,0.597l-3.466,18.435
		c-0.036,0.196,0.006,0.396,0.118,0.561c0.111,0.164,0.284,0.276,0.479,0.312l6.203,1.166c-0.164,0.91-0.63,3.379-1.441,6.888
		c-7.676-2.017-13.363-8.995-13.363-17.295c0-9.871,8.03-17.901,17.9-17.901c9.871,0,17.901,8.03,17.901,17.901
		C154.593,45.537,146.562,53.567,136.691,53.567z M128.404,43.577l3.189-16.965l13.059,2.453l-3.189,16.966L128.404,43.577z"/>
	<path fill="#FFFFFF" d="M144.217,132.091c-5.103,0-9.253,4.15-9.253,9.253s4.15,9.254,9.253,9.254s9.254-4.151,9.254-9.254
		S149.319,132.091,144.217,132.091z M144.217,149.103c-4.278,0-7.758-3.48-7.758-7.759s3.479-7.758,7.758-7.758
		c4.277,0,7.759,3.479,7.759,7.758S148.494,149.103,144.217,149.103z"/>
</g>
</svg>
