<?xml version="1.0" encoding="utf-8"?>
<!-- Generator: Adobe Illustrator 16.0.0, SVG Export Plug-In . SVG Version: 6.00 Build 0)  -->
<!DOCTYPE svg PUBLIC "-//W3C//DTD SVG 1.1//EN" "http://www.w3.org/Graphics/SVG/1.1/DTD/svg11.dtd">
<svg version="1.1" id="Layer_1" xmlns="http://www.w3.org/2000/svg" xmlns:xlink="http://www.w3.org/1999/xlink" x="0px" y="0px"
	 width="110px" height="170px" viewBox="0 0 110 170" enable-background="new 0 0 110 170" xml:space="preserve">
<g>
	<path fill="#FFFFFF" d="M32.964,170c-0.478,0-0.902-0.34-0.991-0.827c-0.989-5.378-4.708-9.925-8.306-14.32l-0.355-0.435
		c-1.883-2.322-3.874-4.665-5.799-6.932c-2.691-3.169-5.475-6.443-8.043-9.751c-2.232-2.86-4.351-6.225-6.294-10.001
		c-1.005-1.898-1.584-4.002-1.584-5.758L1.99,94.478c0.001-0.046,0.004-0.091,0.012-0.137c0.172-8.186,6.957-14.823,15.191-14.823
		c1.837,0,3.644,0.342,5.392,1.018V12.188c0-4.871,2.169-8.617,6.271-10.835c3.432-1.849,7.522-1.799,10.942,0.128
		c3.488,1.968,5.69,5.536,5.891,9.545c0.009,0.116,0.04,0.536,0.011,47.475c2.568-2.147,5.82-3.343,9.228-3.343
		c5.215,0,9.903,2.747,12.46,7.152c2.534-4.404,7.209-7.152,12.42-7.152c4.382,0,8.485,2.021,11.184,5.345
		c0.153-10.194,0.317-23.604,0.336-32.225c0.006-4.071,2.362-7.472,6.004-8.666c2.403-0.778,4.989-0.407,7.091,1.017
		c2.243,1.521,3.639,4,3.825,6.8c0.021,0.439,0.015,0.86,0.008,1.277l-0.006,0.569c0,7.021-0.01,14.044-0.02,21.064
		c-0.031,20.666-0.061,42.036,0.178,63.04c0.078,9.594-1.994,18.444-6.335,27.066c-0.923,1.85-1.852,3.705-2.78,5.562
		c-2.011,4.019-4.092,8.174-6.082,12.266c-1.833,3.717-2.867,6.532-3.098,10.77c-0.03,0.559-0.536,0.981-1.062,0.955
		c-0.556-0.03-0.983-0.507-0.953-1.062c0.273-5.041,1.718-8.34,3.301-11.551c1.993-4.099,4.075-8.259,6.09-12.281
		c0.93-1.855,1.856-3.709,2.779-5.562c4.195-8.333,6.197-16.882,6.122-26.145c-0.238-21.011-0.208-42.388-0.179-63.061
		c0.012-7.02,0.021-14.042,0.021-21.062l0.007-0.603c0.006-0.374,0.012-0.752-0.006-1.128c-0.145-2.158-1.219-4.076-2.943-5.245
		c-1.582-1.073-3.524-1.355-5.332-0.77c-2.796,0.916-4.607,3.565-4.611,6.75c-0.021,9.632-0.222,25.229-0.389,35.657
		c-0.008,0.472-0.339,0.874-0.8,0.972c-0.465,0.097-0.928-0.137-1.126-0.563c-2.022-4.356-6.43-7.171-11.224-7.171
		c-5.104,0-9.609,3.068-11.477,7.815c-0.152,0.387-0.523,0.64-0.937,0.641c-0.001,0-0.001,0-0.002,0
		c-0.414,0-0.785-0.252-0.938-0.636c-1.89-4.751-6.416-7.82-11.527-7.82c-3.66,0-7.111,1.604-9.466,4.403
		c-0.273,0.324-0.721,0.443-1.118,0.297c-0.398-0.145-0.664-0.524-0.663-0.949c0.02-31.472,0.017-49.157-0.007-49.799
		c-0.166-3.316-1.985-6.264-4.867-7.89c-2.813-1.585-6.174-1.627-8.991-0.11c-3.458,1.869-5.21,4.917-5.21,9.059v69.9
		c0,0.351-0.182,0.676-0.481,0.859c-0.299,0.184-0.671,0.201-0.984,0.042c-1.909-0.965-3.91-1.455-5.946-1.455
		c-7.18,0-13.09,5.818-13.175,12.968c0,0.048-0.004,0.093-0.011,0.137L3.61,121.991c0,1.423,0.494,3.183,1.355,4.811
		c1.892,3.674,3.942,6.932,6.099,9.692c2.542,3.274,5.312,6.535,7.988,9.686c1.932,2.274,3.929,4.626,5.826,6.965l0.351,0.43
		c3.76,4.594,7.646,9.344,8.729,15.234c0.101,0.548-0.262,1.073-0.81,1.175C33.086,169.995,33.024,170,32.964,170z"/>
	<path fill="#FFFFFF" d="M23.594,102.938c-0.558,0-1.01-0.452-1.01-1.009v-19.84c0-0.558,0.452-1.009,1.01-1.009
		c0.557,0,1.009,0.451,1.009,1.009v19.84C24.604,102.485,24.151,102.938,23.594,102.938z"/>
	<path fill="#FFFFFF" d="M67.392,71.848c-0.559,0-1.009-0.452-1.009-1.01v-6.213c0-0.558,0.45-1.01,1.009-1.01
		c0.558,0,1.009,0.452,1.009,1.01v6.213C68.4,71.396,67.949,71.848,67.392,71.848z"/>
	<path fill="#FFFFFF" d="M44.689,73.898c-0.558,0-1.009-0.451-1.009-1.009v-11.96c0-0.558,0.452-1.009,1.009-1.009
		c0.557,0,1.009,0.451,1.009,1.009v11.96C45.698,73.447,45.246,73.898,44.689,73.898z"/>
	<path fill="#FFFFFF" d="M91.947,76.894c-0.56,0-1.012-0.451-1.012-1.009V63.923c0-0.558,0.452-1.009,1.012-1.009
		c0.557,0,1.009,0.451,1.009,1.009v11.961C92.956,76.443,92.504,76.894,91.947,76.894z"/>
</g>
</svg>
