<?xml version="1.0" encoding="utf-8"?>
<!-- Generator: Adobe Illustrator 16.0.0, SVG Export Plug-In . SVG Version: 6.00 Build 0)  -->
<!DOCTYPE svg PUBLIC "-//W3C//DTD SVG 1.1//EN" "http://www.w3.org/Graphics/SVG/1.1/DTD/svg11.dtd">
<svg version="1.1" id="Layer_1" xmlns="http://www.w3.org/2000/svg" xmlns:xlink="http://www.w3.org/1999/xlink" x="0px" y="0px"
	 width="164px" height="170px" viewBox="0 0 164 170" enable-background="new 0 0 164 170" xml:space="preserve">
<g>
	<path fill="#FFFFFF" d="M34.42,60.66h6.854v-3.046h5.839v-6.347h-5.839v-3.047H34.42v3.047H7.764v6.347H34.42V60.66z
		 M41.274,52.791h4.316v3.3h-4.316V52.791z M35.943,49.744h3.808v9.394h-3.808V49.744z M9.287,56.091v-3.3H34.42v3.3H9.287z"/>
	<path fill="#FFFFFF" d="M13.603,70.993h6.854v-3.047h26.656v-6.346H20.457v-3.047h-6.854v3.047H7.764v6.346h5.839V70.993z
		 M20.457,63.123H45.59v3.301H20.457V63.123z M15.126,60.077h3.808v9.393h-3.808V60.077z M9.287,66.424v-3.301h4.316v3.301H9.287z"
		/>
	<path fill="#FFFFFF" d="M31.627,69.054h-6.854v3.062H6.474v6.347h18.299v3.03h6.854v-3.03h14.196v-6.347H31.627V69.054z
		 M24.773,76.939H7.997v-3.3h16.776V76.939z M30.104,79.971h-3.809v-9.395h3.809V79.971z M44.3,73.64v3.3H31.627v-3.3H44.3z"/>
	<path fill="#FFFFFF" d="M155.115,43.619H8.885C3.986,43.619,0,47.605,0,52.505v64.991c0,4.898,3.986,8.885,8.885,8.885h146.23
		c4.899,0,8.885-3.986,8.885-8.885V52.505C164,47.605,160.015,43.619,155.115,43.619z M162.476,117.496
		c0,4.059-3.301,7.361-7.36,7.361H8.885c-4.06,0-7.362-3.303-7.362-7.361V52.505c0-4.059,3.302-7.362,7.362-7.362h146.23
		c4.06,0,7.36,3.304,7.36,7.362V117.496z"/>
	<path fill="#FFFFFF" d="M108.583,70.339V59.677c0-4.899-3.985-8.886-8.885-8.886H59.479c-4.899,0-8.885,3.986-8.885,8.886v10.662
		c0,4.899,3.986,8.886,8.885,8.886h40.219C104.598,79.225,108.583,75.238,108.583,70.339z M99.698,77.701H59.479
		c-4.06,0-7.362-3.302-7.362-7.362V59.677c0-4.06,3.302-7.362,7.362-7.362h40.219c4.06,0,7.36,3.303,7.36,7.362v10.662
		C107.059,74.399,103.758,77.701,99.698,77.701z"/>
	<path fill="#FFFFFF" d="M153.211,50.664c-2.38,0-4.315,1.937-4.315,4.316c0,2.379,1.936,4.315,4.315,4.315
		c2.381,0,4.316-1.937,4.316-4.315C157.527,52.601,155.592,50.664,153.211,50.664z M153.211,57.772
		c-1.541,0-2.793-1.253-2.793-2.792c0-1.54,1.252-2.793,2.793-2.793c1.539,0,2.792,1.253,2.792,2.793
		C156.003,56.52,154.75,57.772,153.211,57.772z"/>
	<path fill="#FFFFFF" d="M141.786,59.296c2.38,0,4.315-1.937,4.315-4.315c0-2.38-1.936-4.316-4.315-4.316
		c-2.381,0-4.316,1.937-4.316,4.316C137.47,57.359,139.405,59.296,141.786,59.296z M141.786,52.188c1.54,0,2.793,1.253,2.793,2.793
		c0,1.539-1.253,2.792-2.793,2.792c-1.539,0-2.792-1.253-2.792-2.792C138.994,53.44,140.247,52.188,141.786,52.188z"/>
	<path fill="#FFFFFF" d="M130.362,59.296c2.38,0,4.315-1.937,4.315-4.315c0-2.38-1.936-4.316-4.315-4.316s-4.315,1.937-4.315,4.316
		C126.047,57.359,127.982,59.296,130.362,59.296z M130.362,52.188c1.541,0,2.792,1.253,2.792,2.793c0,1.539-1.251,2.792-2.792,2.792
		s-2.792-1.253-2.792-2.792C127.57,53.44,128.821,52.188,130.362,52.188z"/>
	<path fill="#FFFFFF" d="M118.938,50.664c-2.38,0-4.315,1.937-4.315,4.316c0,2.379,1.936,4.315,4.315,4.315s4.316-1.937,4.316-4.315
		C123.255,52.601,121.318,50.664,118.938,50.664z M118.938,57.772c-1.54,0-2.793-1.253-2.793-2.792c0-1.54,1.253-2.793,2.793-2.793
		c1.539,0,2.792,1.253,2.792,2.793C121.73,56.52,120.478,57.772,118.938,57.772z"/>
	<path fill="#FFFFFF" d="M153.211,60.819c-2.38,0-4.315,1.936-4.315,4.315s1.936,4.316,4.315,4.316c2.381,0,4.316-1.937,4.316-4.316
		S155.592,60.819,153.211,60.819z M153.211,67.928c-1.541,0-2.793-1.253-2.793-2.793s1.252-2.792,2.793-2.792
		c1.539,0,2.792,1.252,2.792,2.792S154.75,67.928,153.211,67.928z"/>
	<path fill="#FFFFFF" d="M141.786,69.451c2.38,0,4.315-1.937,4.315-4.316s-1.936-4.315-4.315-4.315
		c-2.381,0-4.316,1.936-4.316,4.315S139.405,69.451,141.786,69.451z M141.786,62.343c1.54,0,2.793,1.252,2.793,2.792
		s-1.253,2.793-2.793,2.793c-1.539,0-2.792-1.253-2.792-2.793S140.247,62.343,141.786,62.343z"/>
	<path fill="#FFFFFF" d="M130.362,69.451c2.38,0,4.315-1.937,4.315-4.316s-1.936-4.315-4.315-4.315s-4.315,1.936-4.315,4.315
		S127.982,69.451,130.362,69.451z M130.362,62.343c1.541,0,2.792,1.252,2.792,2.792s-1.251,2.793-2.792,2.793
		s-2.792-1.253-2.792-2.793S128.821,62.343,130.362,62.343z"/>
	<path fill="#FFFFFF" d="M118.938,60.819c-2.38,0-4.315,1.936-4.315,4.315s1.936,4.316,4.315,4.316s4.316-1.937,4.316-4.316
		S121.318,60.819,118.938,60.819z M118.938,67.928c-1.54,0-2.793-1.253-2.793-2.793s1.253-2.792,2.793-2.792
		c1.539,0,2.792,1.252,2.792,2.792S120.478,67.928,118.938,67.928z"/>
	<path fill="#FFFFFF" d="M153.211,70.974c-2.38,0-4.315,1.937-4.315,4.316c0,2.379,1.936,4.315,4.315,4.315
		c2.381,0,4.316-1.937,4.316-4.315C157.527,72.91,155.592,70.974,153.211,70.974z M153.211,78.083c-1.541,0-2.793-1.253-2.793-2.793
		s1.252-2.793,2.793-2.793c1.539,0,2.792,1.253,2.792,2.793S154.75,78.083,153.211,78.083z"/>
	<path fill="#FFFFFF" d="M146.102,75.29c0-2.38-1.936-4.316-4.315-4.316c-2.381,0-4.316,1.937-4.316,4.316
		c0,2.379,1.936,4.315,4.316,4.315C144.166,79.605,146.102,77.669,146.102,75.29z M141.786,78.083c-1.539,0-2.792-1.253-2.792-2.793
		s1.253-2.793,2.792-2.793c1.54,0,2.793,1.253,2.793,2.793S143.326,78.083,141.786,78.083z"/>
	<path fill="#FFFFFF" d="M130.362,79.605c2.38,0,4.315-1.937,4.315-4.315c0-2.38-1.936-4.316-4.315-4.316s-4.315,1.937-4.315,4.316
		C126.047,77.669,127.982,79.605,130.362,79.605z M130.362,72.497c1.541,0,2.792,1.253,2.792,2.793s-1.251,2.793-2.792,2.793
		s-2.792-1.253-2.792-2.793S128.821,72.497,130.362,72.497z"/>
	<path fill="#FFFFFF" d="M118.938,70.974c-2.38,0-4.315,1.937-4.315,4.316c0,2.379,1.936,4.315,4.315,4.315s4.316-1.937,4.316-4.315
		C123.255,72.91,121.318,70.974,118.938,70.974z M118.938,78.083c-1.54,0-2.793-1.253-2.793-2.793s1.253-2.793,2.793-2.793
		c1.539,0,2.792,1.253,2.792,2.793S120.478,78.083,118.938,78.083z"/>
	<path fill="#FFFFFF" d="M7.806,110.959h2.539v8.377h8.25v-8.377h2.539V91.791H7.806V110.959z M9.33,93.314h10.282v16.121h-2.539
		v8.377h-5.205v-8.377H9.33V93.314z"/>
	<path fill="#FFFFFF" d="M27.1,110.959h2.539v8.377h8.251v-8.377h2.539V91.791H27.1V110.959z M28.624,93.314h10.282v16.121h-2.539
		v8.377h-5.204v-8.377h-2.539V93.314z"/>
	<path fill="#FFFFFF" d="M46.395,110.959h2.539v8.377h8.25v-8.377h2.539V91.791H46.395V110.959z M47.917,93.314H58.2v16.121h-2.539
		v8.377h-5.205v-8.377h-2.539V93.314z"/>
	<path fill="#FFFFFF" d="M65.688,110.959h2.539v8.377h8.251v-8.377h2.539V91.791H65.688V110.959z M67.212,93.314h10.282v16.121
		h-2.539v8.377h-5.204v-8.377h-2.539V93.314z"/>
	<path fill="#FFFFFF" d="M84.983,110.959h2.537v8.377h8.252v-8.377h2.539V91.791H84.983V110.959z M86.506,93.314h10.281v16.121
		h-2.539v8.377h-5.203v-8.377h-2.539V93.314z"/>
	<path fill="#FFFFFF" d="M104.277,110.959h2.538v8.377h8.25v-8.377h2.539V91.791h-13.327V110.959z M105.801,93.314h10.281v16.121
		h-2.539v8.377h-5.205v-8.377h-2.537V93.314z"/>
	<path fill="#FFFFFF" d="M123.572,110.959h2.537v8.377h8.251v-8.377h2.539V91.791h-13.327V110.959z M125.095,93.314h10.281v16.121
		h-2.539v8.377h-5.204v-8.377h-2.538V93.314z"/>
	<path fill="#FFFFFF" d="M142.865,110.959h2.539v8.377h8.25v-8.377h2.539V91.791h-13.328V110.959z M144.39,93.314h10.281v16.121
		h-2.539v8.377h-5.205v-8.377h-2.537V93.314z"/>
</g>
</svg>
