<?xml version="1.0" encoding="utf-8"?>
<!-- Generator: Adobe Illustrator 16.0.0, SVG Export Plug-In . SVG Version: 6.00 Build 0)  -->
<!DOCTYPE svg PUBLIC "-//W3C//DTD SVG 1.1//EN" "http://www.w3.org/Graphics/SVG/1.1/DTD/svg11.dtd">
<svg version="1.1" id="Layer_1" xmlns="http://www.w3.org/2000/svg" xmlns:xlink="http://www.w3.org/1999/xlink" x="0px" y="0px"
	 width="164px" height="170px" viewBox="0 0 164 170" enable-background="new 0 0 164 170" xml:space="preserve">
<g>
	<path fill="#FFFFFF" d="M114.468,97.189c10.825-2.654,22.018-5.396,34.96-18.338c10.629-10.628,15.484-21.106,14.432-31.144
		c-0.83-7.925-5.142-13.725-8.613-17.194c-3.268-3.269-10.194-8.752-19.863-8.752c-9.226,0-18.806,4.902-28.473,14.569
		C93.97,49.272,91.225,60.466,88.572,71.292c-2.311,9.426-4.494,18.33-13.581,27.414c-4.707,4.707-11.002,8.955-17.091,13.062
		c-10.082,6.799-19.604,13.223-20.336,20.824c-0.346,3.59,1.249,7.1,4.876,10.729c3.312,3.311,6.512,4.918,9.785,4.918
		c0.001,0,0.001,0,0.002,0c8.015,0,14.695-9.9,21.766-20.381c2.59-3.84,5.243-7.746,8.025-11.299
		c2.776,3.549,5.418,7.461,8.004,11.293c7.073,10.484,13.754,20.387,21.77,20.387h0.001c3.272,0,6.473-1.607,9.784-4.92
		c3.627-3.629,5.222-7.137,4.875-10.727c-0.732-7.602-10.255-14.025-20.336-20.826c-3.643-2.457-7.353-4.967-10.758-7.592
		c-0.452,0.275-0.902,0.562-1.353,0.861c3.557,2.773,7.453,5.404,11.269,7.977c9.779,6.598,19.016,12.83,19.681,19.723
		c0.3,3.117-1.152,6.23-4.441,9.521c-3.016,3.014-5.868,4.48-8.722,4.479c-7.217,0-13.68-9.58-20.522-19.725
		c-2.671-3.959-5.402-7.998-8.293-11.662c1.326-1.631,2.68-3.18,4.077-4.578C96.139,101.682,105.043,99.5,114.468,97.189z
		 M135.383,23.266c9.127,0,15.696,5.208,18.8,8.312c3.299,3.297,7.396,8.8,8.182,16.287c0.507,4.834-0.452,9.798-2.848,14.854
		L123.05,26.252C127.23,24.273,131.35,23.266,135.383,23.266z M114.196,31.845c2.51-1.976,5.006-3.62,7.479-4.914
		c0.036,0.08,0.082,0.158,0.149,0.224l36.973,36.973c0.003,0.002,0.006,0.003,0.009,0.006c-1.291,2.457-2.923,4.936-4.888,7.431
		l-12.675,0.002l-0.002-12.775c0-0.416-0.337-0.752-0.753-0.752l-12.766-0.001V45.269c0-0.415-0.337-0.752-0.752-0.752
		l-12.775-0.001V31.845z M107.974,37.394c1.578-1.578,3.15-3.013,4.718-4.328v12.202c0,0.416,0.337,0.752,0.753,0.752l12.775,0.001
		V58.79c0,0.415,0.337,0.752,0.752,0.752l12.766,0.001l0.002,12.775c0,0.2,0.079,0.391,0.221,0.532
		c0.141,0.141,0.332,0.22,0.531,0.22l12.2-0.002c-1.316,1.567-2.748,3.141-4.327,4.72c-1.712,1.711-3.393,3.235-5.047,4.606
		c-0.037-0.005-0.07-0.022-0.11-0.022l-12.767,0.002l-0.002-12.776c0-0.415-0.337-0.752-0.752-0.752l-12.771-0.001l0.001-12.769
		c0-0.2-0.079-0.391-0.221-0.532c-0.141-0.141-0.332-0.22-0.531-0.22l-12.776-0.001V42.548c0-0.038-0.016-0.07-0.021-0.106
		C104.738,40.787,106.262,39.106,107.974,37.394z M101.883,44.293v11.783c0,0.415,0.337,0.752,0.752,0.752l12.777,0.001
		l-0.001,12.769c0,0.199,0.079,0.391,0.22,0.532c0.142,0.141,0.332,0.221,0.532,0.221l12.771,0.001l0.002,12.776
		c0,0.2,0.079,0.391,0.221,0.532c0.141,0.141,0.332,0.22,0.531,0.22l11.777-0.002c-5.351,4.113-10.423,6.633-15.329,8.416
		L93.499,59.652c-0.01-0.01-0.023-0.013-0.034-0.022C95.249,54.721,97.769,49.646,101.883,44.293z M90.033,71.65
		c0.841-3.431,1.693-6.901,2.886-10.451l31.641,31.645c-3.551,1.191-7.019,2.043-10.449,2.885c-1.649,0.404-3.283,0.807-4.905,1.24
		L88.792,76.558C89.226,74.935,89.629,73.3,90.033,71.65z M72.747,127.016c-6.842,10.141-13.304,19.721-20.521,19.719
		c-2.854,0-5.707-1.465-8.722-4.479c-3.29-3.291-4.744-6.404-4.443-9.521c0.665-6.893,9.901-13.125,19.68-19.721
		c6.147-4.146,12.504-8.436,17.313-13.244c7.226-7.225,10.208-14.282,12.276-21.545l19.207,19.206
		c-7.265,2.068-14.323,5.049-21.547,12.275C81.181,114.514,76.894,120.869,72.747,127.016z"/>
	<path fill="#FFFFFF" d="M68.661,104.172c0.426-0.328,0.842-0.658,1.257-0.992c-4.458-2.805-8.907-4.461-13.435-5.75l-1.699-0.428
		l0.032-0.031c-1.623-0.436-3.256-0.838-4.907-1.242c-3.432-0.842-6.902-1.693-10.454-2.885l31.648-31.647
		c1.192,3.551,2.044,7.022,2.885,10.454c0.405,1.651,0.808,3.285,1.241,4.908L54.816,96.971c0.557,0.146,1.113,0.303,1.667,0.459
		l19.207-19.205c1.24,4.354,2.809,8.634,5.423,12.919c0.312-0.486,0.612-0.975,0.897-1.461c-3.521-6.037-5.018-12.097-6.56-18.392
		c-2.652-10.825-5.395-22.02-18.336-34.96c-9.668-9.668-19.248-14.57-28.476-14.57c-9.669,0-16.596,5.484-19.864,8.753
		c-6.393,6.393-18.623,23.899,5.813,48.336c12.942,12.942,24.138,15.687,34.964,18.339C56.095,98.793,62.386,100.342,68.661,104.172
		z M9.837,31.579c3.104-3.104,9.673-8.312,18.8-8.312c4.033,0,8.152,1.007,12.332,2.985L4.606,62.616
		C0.299,53.5-0.797,42.213,9.837,31.579z M5.299,64.012c0.038-0.026,0.08-0.042,0.114-0.076l36.973-36.973
		c0.002-0.002,0.003-0.005,0.005-0.008c2.458,1.29,4.937,2.924,7.431,4.886l0.001,12.673l-12.77,0.001
		c-0.415,0-0.752,0.337-0.752,0.752L36.3,58.037H23.525c-0.415,0-0.752,0.337-0.752,0.752l-0.001,12.775h-12.6
		C8.448,69.331,6.741,66.785,5.299,64.012z M15.651,77.787c-1.268-1.268-2.756-2.863-4.282-4.718h12.156
		c0.416,0,0.752-0.337,0.752-0.752l0.001-12.775h12.774c0.416,0,0.752-0.337,0.752-0.752l0.001-12.77l12.77-0.001
		c0.199,0,0.391-0.08,0.532-0.221s0.22-0.333,0.22-0.532l-0.001-12.204c1.57,1.316,3.144,2.753,4.723,4.332
		c1.711,1.71,3.233,3.389,4.604,5.042c-0.006,0.039-0.022,0.072-0.022,0.112l0.002,12.773l-12.774,0.001
		c-0.415,0-0.752,0.337-0.752,0.752l0,12.771l-12.772-0.001c-0.199,0-0.391,0.079-0.532,0.22s-0.221,0.333-0.221,0.532
		l-0.001,12.776H20.808c-0.039,0-0.072,0.016-0.108,0.022C19.044,81.024,17.363,79.5,15.651,77.787z M22.55,83.878h11.783
		c0.415,0,0.752-0.337,0.752-0.752l0.001-12.776l12.772,0.001c0.2,0,0.391-0.08,0.532-0.221c0.141-0.141,0.22-0.333,0.22-0.532
		l0-12.771l12.774-0.001c0.2,0,0.391-0.079,0.532-0.22s0.221-0.333,0.221-0.532l-0.002-11.788
		c4.115,5.352,6.634,10.424,8.418,15.332L37.91,92.262c-0.01,0.01-0.014,0.023-0.023,0.035
		C32.978,90.512,27.903,87.994,22.55,83.878z"/>
</g>
</svg>
