<?xml version="1.0" encoding="utf-8"?>
<!-- Generator: Adobe Illustrator 16.0.0, SVG Export Plug-In . SVG Version: 6.00 Build 0)  -->
<!DOCTYPE svg PUBLIC "-//W3C//DTD SVG 1.1//EN" "http://www.w3.org/Graphics/SVG/1.1/DTD/svg11.dtd">
<svg version="1.1" id="Layer_1" xmlns="http://www.w3.org/2000/svg" xmlns:xlink="http://www.w3.org/1999/xlink" x="0px" y="0px"
	 width="164px" height="170px" viewBox="0 0 164 170" enable-background="new 0 0 164 170" xml:space="preserve">
<path fill="#FFFFFF" d="M150.414,147.811L150.414,147.811c-0.07,0-0.143-0.002-0.219-0.006l-29.156-1.423
	c-0.227-0.011-0.438-0.124-0.57-0.307c-0.135-0.185-0.179-0.417-0.121-0.638c0.92-3.479,1.387-7.08,1.387-10.703
	c0-23.086-18.781-41.866-41.865-41.866c-18.395,0-34.449,11.782-39.952,29.319c-0.082,0.261-0.3,0.457-0.568,0.512
	c-0.27,0.053-0.547-0.042-0.724-0.252L0.593,77.5c-0.35-0.412-0.782-1.031-0.504-1.632c0.262-0.567,0.919-0.726,1.929-0.286
	L49.092,95.98c0.472,0.207,0.53,0.06,0.554,0.033c0.061-0.065,0.117-0.229,0.095-0.498l-5.876-71.592
	c-0.058-0.701,0.037-1.145,0.307-1.438c0.177-0.191,0.414-0.296,0.671-0.296c0.603,0,0.999,0.549,1.276,1.027l32.676,56.32
	c0.279,0.482,0.464,0.481,0.745,0.001l32.946-56.327c0.279-0.477,0.677-1.023,1.277-1.023c0.256,0,0.494,0.105,0.672,0.297
	c0.27,0.294,0.362,0.737,0.305,1.439l-5.867,69.055c-0.023,0.268,0.031,0.431,0.091,0.494c0.022,0.025,0.082,0.166,0.548-0.037
	l47.926-20.953c1.015-0.443,1.668-0.286,1.931,0.28c0.276,0.6-0.156,1.218-0.507,1.631l-32.088,37.827
	c-0.209,0.245-0.217,0.393-0.209,0.411c0.008,0.021,0.11,0.122,0.432,0.163l35.484,4.562c0.938,0.121,1.449,0.475,1.515,1.051
	s-0.353,1.033-1.239,1.363l-32.881,12.14c-0.221,0.082-0.312,0.162-0.346,0.196c0.027,0.013,0.103,0.109,0.303,0.232l21.104,13.1
	c0.789,0.49,1.107,1.019,0.949,1.569C151.779,147.376,151.439,147.811,150.414,147.811z M122.029,144.924l27.367,1.335
	l-20.36-12.637c-0.705-0.438-1.073-1.049-1.011-1.677c0.062-0.629,0.547-1.154,1.324-1.443l31.911-11.781l-34.46-4.431
	c-0.81-0.104-1.408-0.51-1.642-1.11c-0.234-0.604-0.064-1.308,0.464-1.931l31.302-36.899l-46.813,20.468
	c-0.867,0.375-1.734,0.242-2.258-0.325c-0.367-0.399-0.537-0.981-0.48-1.642l5.758-67.762L80.838,80.3
	c-0.407,0.695-1.017,1.095-1.672,1.095c-0.658,0-1.269-0.401-1.674-1.101L45.471,25.101l5.77,70.292
	c0.054,0.658-0.119,1.24-0.488,1.642c-0.523,0.567-1.394,0.704-2.258,0.329L2.507,77.434l36.398,43.018
	c6.068-17.454,22.361-29.087,40.963-29.087c23.914,0,43.368,19.455,43.368,43.369C123.236,138.176,122.832,141.6,122.029,144.924z"
	/>
</svg>
