<?xml version="1.0" encoding="utf-8"?>
<!-- Generator: Adobe Illustrator 16.0.0, SVG Export Plug-In . SVG Version: 6.00 Build 0)  -->
<!DOCTYPE svg PUBLIC "-//W3C//DTD SVG 1.1//EN" "http://www.w3.org/Graphics/SVG/1.1/DTD/svg11.dtd">
<svg version="1.1" id="Layer_1" xmlns="http://www.w3.org/2000/svg" xmlns:xlink="http://www.w3.org/1999/xlink" x="0px" y="0px"
	 width="164px" height="170px" viewBox="0 0 164 170" enable-background="new 0 0 164 170" xml:space="preserve">
<g>
	<path fill="#FFFFFF" d="M104.077,66.737c-8.431,0-16.072,3.682-22.15,10.658c-6.078-6.976-13.694-10.658-22.078-10.658
		c-15.666,0-28.411,12.71-28.411,28.334c0,16.574,13.661,32.173,25.123,42.34c12.351,10.956,24.872,18.139,24.997,18.21l0.37,0.211
		l0.37-0.21c0.125-0.072,12.682-7.254,25.07-18.211c11.495-10.166,25.196-25.765,25.196-42.34
		C132.562,79.448,119.784,66.737,104.077,66.737z M81.927,154.105c-4.541-2.681-48.995-29.699-48.995-59.034
		c0-14.799,12.075-26.838,26.916-26.838c8.192,0,15.628,3.732,21.503,10.793l0.575,0.691l0.574-0.691
		c4.098-4.924,11.167-10.793,21.576-10.793c14.883,0,26.99,12.04,26.99,26.838C131.067,124.399,86.478,151.427,81.927,154.105z"/>
	<path fill="#FFFFFF" d="M147.428,66.848c-2.62-30.078-29.384-52.68-62.542-52.68c-16.348,0-32.07,5.491-44.271,15.462
		C28.54,39.499,21.229,52.694,19.978,66.847C9.082,67.705,0,76.816,0,87.05v15.99c0,11.379,8.58,20.293,19.552,20.293
		c2.72-0.072,7.864-1.77,7.864-7.671l-0.005-46.037c3.024-26.193,26.706-45.946,55.087-45.946c28.381,0,52.064,19.736,55.082,45.821
		v46.162c0,7.374,7.288,7.669,7.361,7.671h0.021c10.854,0,19.037-8.724,19.037-20.293V87.05C164,75.86,157.22,67.65,147.428,66.848z
		 M162.505,103.04c0,10.712-7.535,18.791-17.528,18.798c-0.357-0.015-5.9-0.333-5.9-6.176l-0.005-46.248
		c-3.11-26.926-27.433-47.23-56.573-47.23c-29.141,0-53.461,20.322-56.578,47.356v46.122c0,5.911-6.148,6.168-6.389,6.176
		c-10.114,0-18.037-8.257-18.037-18.798V87.05c0-9.666,8.797-18.253,19.21-18.751l0.661-0.032l0.049-0.659
		c1.051-13.986,8.206-27.062,20.146-36.821c11.934-9.753,27.32-15.124,43.324-15.124c32.606,0,58.875,22.331,61.103,51.945
		l0.05,0.659l0.661,0.031c9.453,0.449,15.806,7.984,15.806,18.751V103.04z"/>
</g>
</svg>
