<?xml version="1.0" encoding="utf-8"?>
<!-- Generator: Adobe Illustrator 16.0.0, SVG Export Plug-In . SVG Version: 6.00 Build 0)  -->
<!DOCTYPE svg PUBLIC "-//W3C//DTD SVG 1.1//EN" "http://www.w3.org/Graphics/SVG/1.1/DTD/svg11.dtd">
<svg version="1.1" id="Layer_1" xmlns="http://www.w3.org/2000/svg" xmlns:xlink="http://www.w3.org/1999/xlink" x="0px" y="0px"
	 width="164px" height="170px" viewBox="0 0 164 170" enable-background="new 0 0 164 170" xml:space="preserve">
<g>
	<path fill="#FFFFFF" d="M82.203,93.05c-15.044,0-27.284,12.24-27.284,27.285s12.24,27.284,27.284,27.284
		s27.285-12.239,27.285-27.284S97.247,93.05,82.203,93.05z M82.203,146.119c-14.217,0-25.784-11.566-25.784-25.784
		S67.985,94.55,82.203,94.55s25.785,11.567,25.785,25.785S96.42,146.119,82.203,146.119z"/>
	<path fill="#FFFFFF" d="M149.419,82.221h-44.675c-0.414,0-0.75,0.336-0.75,0.75v7.447c-4.131-3.017-8.904-5.201-14.076-6.302
		l9.184-4.256c0.265-0.123,0.435-0.389,0.435-0.681v-5.749h27.68c0.414,0,0.75-0.336,0.75-0.75V45.063c0-0.414-0.336-0.75-0.75-0.75
		H88.228c-0.414,0-0.75,0.336-0.75,0.75v27.618c0,0.414,0.336,0.75,0.75,0.75h9.809v5.27L87.37,83.643
		c-0.013,0.006-0.02,0.017-0.031,0.023c-1.68-0.234-3.393-0.364-5.136-0.364c-1.862,0-3.692,0.142-5.481,0.408
		c-0.032-0.021-0.056-0.05-0.091-0.067l-10.666-4.942v-5.27h9.81c0.414,0,0.75-0.336,0.75-0.75V45.063c0-0.414-0.336-0.75-0.75-0.75
		h-38.99c-0.414,0-0.75,0.336-0.75,0.75V54.8c0,0.003-0.002,0.006-0.002,0.01s0.002,0.006,0.002,0.01v17.861
		c0,0.414,0.336,0.75,0.75,0.75h27.68v5.749c0,0.292,0.169,0.558,0.435,0.681l9.318,4.318c-5.235,1.155-10.061,3.414-14.21,6.531
		v-7.739c0-0.414-0.336-0.75-0.75-0.75H14.581c-0.414,0-0.75,0.336-0.75,0.75v10.831c0,0.414,0.336,0.75,0.75,0.75h3.042v14.472
		h-3.042c-0.414,0-0.75,0.336-0.75,0.75v10.832c0,0.414,0.336,0.75,0.75,0.75h21.724v35.323h-3.854c-0.414,0-0.75,0.336-0.75,0.75
		s0.336,0.75,0.75,0.75h9.477c0.414,0,0.75-0.336,0.75-0.75s-0.336-0.75-0.75-0.75h-4.123v-35.323h7.391
		c0.318,11.658,6.041,21.989,14.758,28.562l-6.712,6.711c-0.293,0.293-0.293,0.768,0,1.061c0.146,0.146,0.338,0.22,0.53,0.22
		s0.384-0.073,0.53-0.22l6.886-6.886c5.975,4.134,13.215,6.563,21.015,6.563c7.799,0,15.04-2.43,21.014-6.563l6.887,6.886
		c0.146,0.146,0.338,0.22,0.53,0.22s0.384-0.073,0.53-0.22c0.293-0.293,0.293-0.768,0-1.061l-6.713-6.712
		c8.718-6.572,14.44-16.903,14.758-28.562h6.987v35.323h-4.124c-0.414,0-0.75,0.336-0.75,0.75s0.336,0.75,0.75,0.75h9.478
		c0.414,0,0.75-0.336,0.75-0.75s-0.336-0.75-0.75-0.75h-3.854v-35.323h21.723c0.414,0,0.75-0.336,0.75-0.75v-10.832
		c0-0.414-0.336-0.75-0.75-0.75h-3.041V94.552h3.041c0.414,0,0.75-0.336,0.75-0.75V82.971
		C150.169,82.557,149.833,82.221,149.419,82.221z M126.466,45.813v8.247H88.978v-8.247H126.466z M88.978,55.56h37.488v16.371H88.978
		V55.56z M75.024,45.813v8.247h-37.49v-8.247H75.024z M37.534,55.56h37.49v16.371h-37.49V55.56z M15.331,83.721h43.176v8.112
		c0,0.021,0.01,0.038,0.012,0.059c-0.451,0.376-0.894,0.763-1.327,1.16h-1.727H18.373h-3.042V83.721z M19.123,94.552h35.591v0.996
		c-3.474,3.849-6.148,8.428-7.771,13.476h-27.82V94.552z M15.331,110.523h3.042h28.126c-0.82,2.979-1.276,6.105-1.317,9.332H15.331
		V110.523z M82.203,155.867c-19.413,0-35.23-15.65-35.52-34.995c0.032-0.084,0.054-0.172,0.054-0.267
		c0-0.108-0.025-0.21-0.066-0.303c0.008-9.124,3.474-17.452,9.154-23.746c0.146-0.082,0.267-0.202,0.332-0.357
		c6.494-7.004,15.765-11.397,26.046-11.397c19.593,0,35.533,15.94,35.533,35.533S101.796,155.867,82.203,155.867z M148.669,119.855
		h-29.445c-0.042-3.227-0.498-6.353-1.317-9.332h27.722h3.041V119.855z M144.878,109.023h-27.416
		c-1.767-5.492-4.783-10.427-8.713-14.472h36.129V109.023z M148.669,93.052h-3.041h-37.092h-1.048c-0.08,0-0.154,0.022-0.228,0.046
		c-0.572-0.527-1.162-1.035-1.767-1.526v-7.851h43.175V93.052z"/>
	<path fill="#FFFFFF" d="M162.417,156.679h-3.854V56.055c3.196-0.374,5.687-3.094,5.687-6.389c0-3.549-2.888-6.437-6.437-6.437
		c-1.623,0-3.103,0.608-4.236,1.602l-16.618-14.993h10.356c2.619,0,4.75-2.131,4.75-4.75V23.34c0-2.619-2.131-4.75-4.75-4.75
		h-17.994v-6.019c0-0.414-0.336-0.75-0.75-0.75s-0.75,0.336-0.75,0.75v6.019h-18.536c-2.619,0-4.75,2.131-4.75,4.75v1.748
		c0,2.619,2.131,4.75,4.75,4.75h25.618c0.037,0.129,0.097,0.252,0.204,0.348l17.464,15.757c-0.749,1.052-1.195,2.335-1.195,3.723
		c0,3.295,2.49,6.016,5.688,6.389v100.624h-4.125c-0.414,0-0.75,0.336-0.75,0.75s0.336,0.75,0.75,0.75h9.479
		c0.414,0,0.75-0.336,0.75-0.75S162.831,156.679,162.417,156.679z M106.035,25.088V23.34c0-1.792,1.458-3.25,3.25-3.25h38.03
		c1.792,0,3.25,1.458,3.25,3.25v1.748c0,1.792-1.458,3.25-3.25,3.25h-38.03C107.493,28.338,106.035,26.88,106.035,25.088z
		 M152.876,49.666c0-2.722,2.215-4.937,4.938-4.937c2.722,0,4.937,2.214,4.937,4.937s-2.215,4.937-4.937,4.937
		C155.091,54.603,152.876,52.388,152.876,49.666z"/>
	<path fill="#FFFFFF" d="M12.624,49.666c0-1.387-0.445-2.67-1.195-3.722l17.464-15.757c0.107-0.096,0.167-0.219,0.205-0.348h25.618
		c2.619,0,4.75-2.131,4.75-4.75V23.34c0-2.619-2.131-4.75-4.75-4.75H36.18v-6.019c0-0.414-0.336-0.75-0.75-0.75
		s-0.75,0.336-0.75,0.75v6.019H16.687c-2.619,0-4.75,2.131-4.75,4.75v1.748c0,2.619,2.131,4.75,4.75,4.75H27.04L10.423,44.832
		c-1.133-0.995-2.613-1.603-4.236-1.603c-3.55,0-6.438,2.887-6.438,6.437c0,3.295,2.49,6.016,5.688,6.389v100.624H1.583
		c-0.414,0-0.75,0.336-0.75,0.75s0.336,0.75,0.75,0.75h9.477c0.414,0,0.75-0.336,0.75-0.75s-0.336-0.75-0.75-0.75H6.938V56.055
		C10.134,55.682,12.624,52.961,12.624,49.666z M13.437,25.088V23.34c0-1.792,1.458-3.25,3.25-3.25h38.029
		c1.792,0,3.25,1.458,3.25,3.25v1.748c0,1.792-1.458,3.25-3.25,3.25H16.687C14.895,28.338,13.437,26.88,13.437,25.088z M1.25,49.666
		c0-2.722,2.215-4.937,4.938-4.937c2.722,0,4.937,2.214,4.937,4.937s-2.214,4.937-4.937,4.937C3.465,54.603,1.25,52.388,1.25,49.666
		z"/>
</g>
</svg>
