<?xml version="1.0" encoding="utf-8"?>
<!-- Generator: Adobe Illustrator 16.0.0, SVG Export Plug-In . SVG Version: 6.00 Build 0)  -->
<!DOCTYPE svg PUBLIC "-//W3C//DTD SVG 1.1//EN" "http://www.w3.org/Graphics/SVG/1.1/DTD/svg11.dtd">
<svg version="1.1" id="Layer_1" xmlns="http://www.w3.org/2000/svg" xmlns:xlink="http://www.w3.org/1999/xlink" x="0px" y="0px"
	 width="164px" height="170px" viewBox="0 0 164 170" enable-background="new 0 0 164 170" xml:space="preserve">
<path fill="#FFFFFF" d="M163.921,26.726c-0.089-0.178-0.244-0.312-0.432-0.375l-10.806-3.6l0.587-1.75
	c2.501-7.518-1.567-15.67-9.066-18.193c-0.01-0.004-0.018-0.013-0.028-0.017c-6.306-2.095-13.201,0.852-16.035,6.858l-11.958,25.325
	c-0.329-0.156-0.667-0.3-1.021-0.418c-0.931-0.31-1.897-0.466-2.871-0.466c-3.926,0-7.392,2.499-8.622,6.218
	c-1.464,4.416,0.659,9.172,4.771,11.097l-3.189,6.741c-0.428-0.225-0.873-0.427-1.347-0.585c-0.931-0.311-1.896-0.468-2.869-0.468
	c-3.915,0-7.377,2.5-8.617,6.219c-1.506,4.53,0.768,9.416,5.092,11.237l-3.146,6.662c-0.322-0.151-0.651-0.29-0.993-0.404
	c-0.933-0.31-1.899-0.466-2.874-0.466c-3.922,0-7.39,2.499-8.629,6.218c-0.767,2.302-0.59,4.765,0.498,6.935
	c0.922,1.841,2.409,3.276,4.244,4.141l-3.149,6.662c-0.208-0.087-0.416-0.174-0.633-0.245c-0.932-0.312-1.899-0.471-2.875-0.471
	c-3.916,0-7.378,2.5-8.614,6.221c-0.769,2.302-0.595,4.766,0.489,6.934c0.861,1.723,2.223,3.088,3.899,3.967l-3.467,7.346
	c-1.417,2.98-4.851,4.479-7.983,3.488c-1.654-0.524-3.013-1.688-3.825-3.279c-0.839-1.642-0.99-3.579-0.416-5.312l12.141-36.38
	c0.002-0.006,0.007-0.011,0.009-0.017l0.639-1.924c0.009-0.026,0.017-0.05,0.025-0.077l0.02-0.059
	c0.071-0.212,0.136-0.409,0.206-0.619c0.263-0.792,0.525-1.584,0.778-2.335c0,0,0,0,0,0c0,0,0-0.001,0-0.001
	c1.109-3.329,2.089-6.273,2.942-8.809c0.303-0.924,0.594-1.789,0.869-2.605h0.167c3.157,0,5.725-2.568,5.725-5.725
	s-2.568-5.724-5.725-5.724H5.725C2.568,58.668,0,61.236,0,64.393s2.568,5.725,5.725,5.725h3.883
	c0.207,0.877,0.383,1.711,0.514,2.502c0.448,2.529,0.686,5.222,0.704,8.006c0.016,1.617-0.047,3.283-0.189,4.952
	c0,0.001,0,0.001,0,0.002c0,0.001,0,0.002,0,0.003c-0.423,5.376-1.627,11.081-3.58,16.953c-8.655,25.964,5.419,54.135,31.376,62.799
	c5.187,1.728,10.458,2.547,15.648,2.547c20.792-0.002,40.223-13.171,47.156-33.944L137.804,24.27
	c0.773,3.532,3.319,6.587,6.988,7.813l5.749,1.918c1.089,0.362,2.216,0.546,3.354,0.546c0,0,0,0,0.001,0
	c4.568,0,8.614-2.914,10.065-7.251C164.024,27.108,164.01,26.903,163.921,26.726z M105.088,40.777
	c1.027-3.105,3.922-5.192,7.202-5.192c0.813,0,1.621,0.131,2.399,0.39c0.388,0.129,0.753,0.295,1.104,0.478
	c0.071,0.151,0.185,0.284,0.347,0.361c0.119,0.057,0.244,0.067,0.365,0.06c2.771,1.854,4.09,5.395,2.989,8.707
	c-1.038,3.107-3.934,5.194-7.207,5.194c-0.812,0-1.617-0.131-2.394-0.391c-0.004-0.001-0.009-0.003-0.013-0.005
	c-0.033-0.023-0.06-0.054-0.098-0.072c-0.079-0.038-0.161-0.053-0.244-0.061C105.803,48.79,103.811,44.631,105.088,40.777z
	 M93.836,63.784c1.035-3.107,3.928-5.196,7.197-5.196c0.812,0,1.618,0.131,2.396,0.391c0.538,0.179,1.041,0.418,1.508,0.699
	c0.073,0.108,0.164,0.205,0.29,0.265c0.06,0.028,0.122,0.03,0.185,0.042c2.658,1.882,3.901,5.352,2.822,8.601
	c-1.039,3.106-3.932,5.193-7.197,5.193c-0.812,0-1.618-0.131-2.397-0.391C94.668,72.065,92.514,67.758,93.836,63.784z
	 M83.701,92.823c-0.908-1.813-1.057-3.87-0.416-5.792c1.035-3.108,3.934-5.196,7.21-5.196c0.814,0,1.622,0.131,2.401,0.39
	c1.922,0.64,3.479,1.991,4.388,3.803c0.908,1.813,1.057,3.872,0.415,5.796c-1.032,3.106-3.928,5.193-7.204,5.193
	c-0.813,0-1.621-0.131-2.4-0.391c-0.027-0.009-0.053-0.021-0.08-0.031c-0.024-0.015-0.041-0.037-0.067-0.05
	c-0.054-0.025-0.11-0.029-0.167-0.041C86.003,95.825,84.56,94.534,83.701,92.823z M73.164,116.064
	c-0.905-1.811-1.05-3.868-0.408-5.793c1.033-3.108,3.924-5.197,7.195-5.197c0.813,0,1.621,0.133,2.401,0.394
	c0.165,0.055,0.324,0.122,0.483,0.188c-0.115,0.352,0.034,0.742,0.379,0.905c0.104,0.049,0.213,0.071,0.318,0.071
	c0.23,0,0.45-0.111,0.592-0.301c1.108,0.725,2.013,1.725,2.62,2.937c0.906,1.812,1.052,3.869,0.41,5.797
	c-1.032,3.105-3.925,5.193-7.197,5.193c-0.813,0-1.622-0.132-2.402-0.392c-0.108-0.036-0.21-0.082-0.316-0.122
	c-0.053-0.049-0.106-0.099-0.175-0.131c-0.1-0.047-0.204-0.066-0.307-0.067C75.2,118.827,73.941,117.617,73.164,116.064z
	 M12.284,83.157c0-0.007,0.001-0.015,0.001-0.022c0.022-0.591,0.036-1.178,0.039-1.76l59.786,0.657
	c-0.163,0.487-0.331,0.993-0.498,1.497c-0.055,0.167-0.106,0.32-0.163,0.488l-0.514,1.541l-58.746-0.655
	C12.23,84.318,12.261,83.736,12.284,83.157z M1.496,64.393c0-2.332,1.897-4.229,4.229-4.229h72.106c2.332,0,4.23,1.897,4.23,4.229
	c0,2.332-1.898,4.229-4.23,4.229h-0.108c-0.079-0.078-0.171-0.144-0.283-0.182c-0.277-0.092-0.563-0.008-0.758,0.182H10.577
	c-0.167-0.107-0.375-0.151-0.584-0.099c-0.078,0.02-0.144,0.059-0.208,0.099H5.725C3.393,68.622,1.496,66.725,1.496,64.393z
	 M76.087,70.117c-0.229,0.681-0.465,1.385-0.711,2.133c-0.806,2.397-1.733,5.177-2.769,8.291l-60.305-0.663
	c-0.053-2.604-0.285-5.133-0.706-7.511c-0.118-0.714-0.275-1.468-0.453-2.25H76.087z M99.819,133.464
	c-8.403,25.177-35.728,38.837-60.913,30.452c-25.174-8.403-38.824-35.726-30.43-60.908c1.908-5.738,3.107-11.322,3.584-16.611
	l58.377,0.65l-11.822,35.424c-0.7,2.112-0.517,4.469,0.502,6.465c0.996,1.95,2.667,3.379,4.706,4.023
	c0.8,0.253,1.615,0.375,2.42,0.375c3.065,0,5.99-1.754,7.365-4.647l3.49-7.395c0.928,0.306,1.89,0.462,2.858,0.462
	c3.917,0,7.38-2.498,8.616-6.216c0.768-2.307,0.594-4.77-0.492-6.938c-0.756-1.51-1.896-2.743-3.295-3.617l3.225-6.823
	c0.812,0.23,1.645,0.354,2.483,0.354c3.922,0,7.387-2.498,8.624-6.218c0.767-2.303,0.59-4.766-0.498-6.937
	c-0.695-1.389-1.712-2.546-2.955-3.404l3.272-6.932c0.688,0.164,1.391,0.25,2.098,0.25c3.91,0,7.373-2.498,8.616-6.216
	c1.258-3.785-0.123-7.816-3.131-10.105l3.324-7.026c0.799,0.224,1.617,0.344,2.442,0.344c3.917,0,7.383-2.498,8.626-6.217
	c1.299-3.907-0.215-8.083-3.433-10.327l12.012-25.439c2.402-5.093,8.095-7.706,13.487-6.292l-4.891,14.676
	c-0.009,0.025-0.013,0.05-0.021,0.075L99.819,133.464z M153.895,33.052c-0.976,0-1.945-0.158-2.879-0.469l-5.751-1.918
	c-4.738-1.584-7.315-6.714-5.772-11.458l4.912-14.735c6.286,2.511,9.611,9.549,7.448,16.055l-0.825,2.458
	c-0.062,0.188-0.048,0.394,0.04,0.572c0.089,0.178,0.245,0.312,0.433,0.375l10.776,3.591
	C160.849,30.859,157.568,33.052,153.895,33.052z"/>
</svg>
