<?xml version="1.0" encoding="utf-8"?>
<!-- Generator: Adobe Illustrator 16.0.0, SVG Export Plug-In . SVG Version: 6.00 Build 0)  -->
<!DOCTYPE svg PUBLIC "-//W3C//DTD SVG 1.1//EN" "http://www.w3.org/Graphics/SVG/1.1/DTD/svg11.dtd">
<svg version="1.1" id="Layer_1" xmlns="http://www.w3.org/2000/svg" xmlns:xlink="http://www.w3.org/1999/xlink" x="0px" y="0px"
	 width="164px" height="170px" viewBox="0 0 164 170" enable-background="new 0 0 164 170" xml:space="preserve">
<g>
	<g>
		<path fill="#FFFFFF" d="M74.849,170c-20.947,0.001-50.838-4.077-74.284-23.508c-0.266-0.221-0.399-0.562-0.353-0.905
			s0.268-0.637,0.583-0.776c0.466-0.209,46.72-20.906,59.392-33.026c8.445-8.089,10.94-25.714,10.965-25.892
			c0.039-0.283,0.197-0.536,0.434-0.694c0.237-0.159,0.53-0.209,0.808-0.137c0.066,0.017,6.701,1.721,12.011,1.721h0.001
			c3.515,0,4.94-0.728,5.519-1.357L124.8,30.87c0.02-0.029,0.039-0.058,0.062-0.085c0.019-0.021,1.834-2.354,1.42-4.625
			c-0.208-1.141-0.978-2.118-2.28-2.903c-0.272-0.165-0.451-0.449-0.479-0.766c-0.028-0.317,0.096-0.629,0.334-0.84l24.215-21.4
			c0.204-0.18,0.476-0.269,0.742-0.247l14.065,1.131c0.394,0.031,0.729,0.29,0.861,0.661s0.034,0.785-0.25,1.057L136.026,29.2
			l-31.365,60.488c-0.027,0.604-0.005,2.846,1.663,4.717c1.787,2.006,4.876,3.021,9.181,3.021c3.44,0,6.834-0.118,10.114-0.233
			c2.839-0.101,5.519-0.192,7.875-0.192c5.437,0,9.216,0.476,9.988,2.795c0.69,2.078-2.72,4.837-11.188,11.431
			c-8.053,6.271-19.08,14.855-24.977,23.252c-10.338,14.681-7.743,32.32-7.716,32.498c0.082,0.53-0.271,1.032-0.798,1.135
			C98.706,168.128,88.89,170,74.849,170z M3.092,145.969C25.886,164.145,54.604,168.001,74.849,168
			c11.382,0,19.927-1.243,22.652-1.693c-0.435-4.022-1.338-19.468,8.18-32.981c6.068-8.64,17.231-17.33,25.386-23.679
			c4.808-3.741,10.248-7.979,10.496-9.276c-0.29-0.64-1.956-1.37-8.067-1.37c-2.32,0-4.982,0.094-7.805,0.191
			c-3.301,0.115-6.709,0.234-10.186,0.234c-4.922,0-8.521-1.253-10.701-3.724c-2.527-2.863-2.135-6.274-2.115-6.418
			c0.015-0.117,0.05-0.231,0.104-0.336l31.534-60.817c0.052-0.097,0.116-0.186,0.195-0.261l25.978-24.922l-11.426-0.918
			l-22.951,20.28c1.17,0.972,1.885,2.146,2.127,3.501c0.538,2.992-1.479,5.766-1.789,6.171L91.569,86.566
			c-0.025,0.039-0.055,0.076-0.084,0.11c-1.212,1.413-3.527,2.103-7.078,2.103h-0.001c-4.317,0-9.292-1.028-11.441-1.524
			c-0.691,4.106-3.602,18.513-11.394,25.974C49.797,124.489,11.291,142.255,3.092,145.969z"/>
		<path fill="#FFFFFF" d="M93.376,112.1c-0.166,0-0.33-0.041-0.479-0.123l-14.827-8.096c-0.232-0.127-0.405-0.342-0.48-0.597
			s-0.045-0.528,0.082-0.761l4.013-7.348c0.127-0.23,0.341-0.404,0.596-0.479c0.255-0.072,0.529-0.047,0.762,0.082l14.816,8.101
			c0.484,0.267,0.663,0.872,0.398,1.356l-4.006,7.341c-0.127,0.233-0.343,0.405-0.597,0.479
			C93.565,112.085,93.47,112.1,93.376,112.1z M79.907,102.604l13.071,7.139l3.047-5.585l-13.062-7.144L79.907,102.604z"/>
		<path fill="#FFFFFF" d="M86.617,125.605c-0.161,0-0.325-0.039-0.479-0.121l-14.822-8.094c-0.232-0.127-0.405-0.344-0.48-0.599
			c-0.075-0.254-0.045-0.526,0.082-0.761l4.012-7.342c0.127-0.231,0.342-0.404,0.596-0.479c0.255-0.074,0.528-0.046,0.761,0.083
			l14.822,8.111c0.231,0.128,0.403,0.343,0.479,0.598c0.073,0.254,0.045,0.527-0.082,0.762l-4.012,7.322
			C87.313,125.419,86.97,125.605,86.617,125.605z M73.152,116.113l13.07,7.137l3.05-5.568l-13.067-7.152L73.152,116.113z"/>
		<path fill="#FFFFFF" d="M78.814,135.809c-0.447,0-0.892-0.113-1.284-0.326l-11.857-6.477c-0.629-0.344-1.087-0.913-1.29-1.604
			c-0.202-0.69-0.125-1.418,0.219-2.047l1.122-2.051c0.471-0.861,1.377-1.396,2.364-1.396c0.448,0,0.893,0.111,1.287,0.328
			l11.852,6.482c0.629,0.344,1.086,0.914,1.29,1.604c0.201,0.69,0.123,1.418-0.221,2.047l-1.115,2.037
			C80.709,135.273,79.802,135.809,78.814,135.809z M68.088,123.909c-0.255,0-0.489,0.137-0.609,0.356l-1.122,2.051
			c-0.087,0.158-0.107,0.345-0.055,0.521c0.052,0.179,0.169,0.324,0.329,0.411l11.857,6.477c0.326,0.18,0.762,0.047,0.938-0.274
			l1.114-2.037c0.18-0.329,0.054-0.758-0.274-0.938l-11.852-6.481C68.313,123.938,68.203,123.909,68.088,123.909z"/>
		<path fill="#FFFFFF" d="M91.206,145.104c-2.404,0-4.361-1.963-4.361-4.375c0-2.418,1.957-4.383,4.361-4.383
			c2.422,0,4.391,1.965,4.391,4.383C95.597,143.141,93.628,145.104,91.206,145.104z M91.206,138.346
			c-1.302,0-2.361,1.068-2.361,2.383c0,1.311,1.062,2.375,2.361,2.375c1.318,0,2.391-1.064,2.391-2.375
			C93.597,139.414,92.524,138.346,91.206,138.346z"/>
		<path fill="#FFFFFF" d="M88.192,158.968c-2.416,0-4.381-1.962-4.381-4.374s1.965-4.377,4.381-4.377
			c2.411,0,4.372,1.965,4.372,4.377S90.604,158.968,88.192,158.968z M88.192,152.217c-1.312,0-2.381,1.066-2.381,2.377
			c0,1.309,1.068,2.374,2.381,2.374c1.309,0,2.372-1.065,2.372-2.374C90.564,153.283,89.501,152.217,88.192,152.217z"/>
	</g>
</g>
</svg>
