<?xml version="1.0" encoding="utf-8"?>
<!-- Generator: Adobe Illustrator 16.0.0, SVG Export Plug-In . SVG Version: 6.00 Build 0)  -->
<!DOCTYPE svg PUBLIC "-//W3C//DTD SVG 1.1//EN" "http://www.w3.org/Graphics/SVG/1.1/DTD/svg11.dtd">
<svg version="1.1" id="Layer_1" xmlns="http://www.w3.org/2000/svg" xmlns:xlink="http://www.w3.org/1999/xlink" x="0px" y="0px"
	 width="164px" height="170px" viewBox="0 0 164 170" enable-background="new 0 0 164 170" xml:space="preserve">
<g>
	<path fill="#FFFFFF" d="M116.073,134.531c0-17.178-12.78-31.42-29.331-33.735V34.363c2.184-3.746,2.777-7.441,2.82-10.213
		c0.133,0.121,0.307,0.2,0.5,0.2h1.924c0.347,1.594,1.766,2.793,3.463,2.793c1.955,0,3.546-1.591,3.546-3.546
		c0-1.955-1.591-3.545-3.546-3.545c-1.697,0-3.116,1.199-3.463,2.793h-1.924c-0.199,0-0.377,0.081-0.512,0.207
		c-0.074-2.055-0.417-3.405-0.451-3.533c-0.064-0.244-0.248-0.438-0.486-0.519c-1.219-0.408-2.037-1.548-2.037-2.835
		c0-1.648,1.341-2.989,2.988-2.989c0.303,0,0.574-0.18,0.692-0.458c0.368-0.868,0.532-1.795,0.606-2.528
		c0.137,0.147,0.328,0.243,0.546,0.243h1.924c0.347,1.595,1.765,2.795,3.462,2.795c1.955,0,3.547-1.591,3.547-3.547
		c0-1.955-1.592-3.545-3.547-3.545c-1.697,0-3.115,1.199-3.462,2.793H91.41c-0.189,0-0.358,0.076-0.49,0.192
		c0-0.164-0.004-0.278-0.005-0.288C90.915,3.962,86.953,0,82.082,0h-0.167c-4.871,0-8.833,3.962-8.833,8.794
		c0,0.011-0.002,0.06-0.004,0.134h-1.901c-0.346-1.594-1.765-2.793-3.461-2.793c-1.955,0-3.545,1.591-3.545,3.545
		c0,1.956,1.59,3.547,3.545,3.547c1.696,0,3.116-1.2,3.461-2.795h1.925c0.021,0,0.039-0.01,0.059-0.012
		c0.084,0.696,0.248,1.518,0.579,2.298c0.118,0.278,0.391,0.458,0.692,0.458c1.647,0,2.988,1.341,2.988,2.989
		c0,1.287-0.819,2.426-2.038,2.835c-0.239,0.08-0.422,0.275-0.488,0.519c-0.032,0.123-0.353,1.389-0.441,3.327
		c-0.001,0-0.002-0.001-0.004-0.001h-1.926c-0.347-1.594-1.765-2.793-3.461-2.793c-1.955,0-3.545,1.59-3.545,3.545
		c0,1.955,1.59,3.546,3.545,3.546c1.696,0,3.115-1.2,3.461-2.793h1.911c0.068,2.748,0.691,6.36,2.821,10.014v22.6h-1.439
		c-0.346-1.594-1.765-2.793-3.461-2.793c-1.955,0-3.545,1.591-3.545,3.546c0,1.955,1.59,3.545,3.545,3.545
		c1.696,0,3.116-1.199,3.461-2.793h1.439v42.328c-16.549,2.316-29.329,16.559-29.329,33.735s12.78,31.419,29.329,33.735v0.98
		c0,0.415,0.337,0.752,0.752,0.752h7.981c0.414,0,0.752-0.337,0.752-0.752v-0.98C103.293,165.95,116.073,151.709,116.073,134.531z
		 M95.449,21.556c1.126,0,2.042,0.916,2.042,2.041s-0.916,2.041-2.042,2.041s-2.043-0.916-2.043-2.041S94.323,21.556,95.449,21.556z
		 M96.796,7.639c1.126,0,2.043,0.916,2.043,2.041c0,1.126-0.917,2.043-2.043,2.043s-2.042-0.917-2.042-2.043
		C94.754,8.555,95.67,7.639,96.796,7.639z M67.717,11.723c-1.125,0-2.041-0.917-2.041-2.043c0-1.125,0.916-2.041,2.041-2.041
		s2.041,0.916,2.041,2.041C69.758,10.807,68.842,11.723,67.717,11.723z M69.063,25.638c-1.125,0-2.041-0.916-2.041-2.041
		s0.916-2.041,2.041-2.041s2.041,0.916,2.041,2.041S70.189,25.638,69.063,25.638z M72.355,59.757c-1.125,0-2.041-0.916-2.041-2.041
		s0.916-2.042,2.041-2.042s2.041,0.916,2.041,2.042C74.396,58.841,73.481,59.757,72.355,59.757z M78.761,161.723
		c1.063,0.125,2.142,0.197,3.238,0.197c1.097,0,2.177-0.072,3.239-0.197v5.215c-1.065,0.105-2.146,0.162-3.239,0.162
		c-1.093,0-2.172-0.057-3.238-0.162V161.723z M81.999,160.415c-1.097,0-2.176-0.076-3.238-0.21v-5.768h6.477v5.768
		C84.177,160.339,83.098,160.415,81.999,160.415z M82.578,34.925v65.55c-0.193-0.004-0.385-0.016-0.579-0.016
		s-0.385,0.012-0.578,0.016v-65.55H82.578z M81.999,101.963c0.194,0,0.386,0.012,0.579,0.016v5.181
		c-0.193-0.005-0.385-0.015-0.579-0.015s-0.385,0.01-0.578,0.015v-5.181C81.614,101.975,81.805,101.963,81.999,101.963z
		 M85.238,152.936h-1.156v-8.074h1.156V152.936z M82.578,152.936h-1.157v-8.074h1.157V152.936z M78.761,152.936v-8.074h1.156v8.074
		H78.761z M81.421,143.355v-34.693c0.193-0.004,0.384-0.016,0.578-0.016s0.386,0.012,0.579,0.016v34.693H81.421z M79.917,104.223
		c-0.145-0.115-0.33-0.182-0.527-0.162c-0.209,0.018-0.419,0.054-0.629,0.074v-2.01c0.383-0.039,0.769-0.064,1.156-0.089V104.223z
		 M78.761,105.646c0.252-0.026,0.504-0.066,0.755-0.088c0.156-0.014,0.287-0.084,0.4-0.176v1.848
		c-0.388,0.028-0.772,0.064-1.156,0.109v-1.693H78.761z M79.917,108.738v34.617h-1.156v-34.498
		C79.144,108.811,79.529,108.771,79.917,108.738z M77.256,143.355h-2.14c-0.416,0-0.752,0.338-0.752,0.752
		c0,0.416,0.337,0.752,0.752,0.752h2.14v8.826v6.287c-12.014-2.236-21.141-12.791-21.141-25.441c0-12.651,9.127-23.206,21.141-25.44
		V143.355z M86.742,153.688v-8.826h2.14c0.415,0,0.752-0.338,0.752-0.752c0-0.416-0.337-0.752-0.752-0.752h-2.14v-34.267
		c12.014,2.234,21.141,12.789,21.141,25.44c0,12.65-9.127,23.205-21.141,25.441V153.688z M85.238,143.355h-1.156v-34.617
		c0.389,0.031,0.773,0.07,1.156,0.119V143.355z M84.082,107.23v-1.688c0.387,0.026,0.773,0.054,1.156,0.097v1.702
		C84.855,107.296,84.471,107.26,84.082,107.23z M85.238,104.129c-0.387-0.041-0.771-0.07-1.156-0.096v-1.997
		c0.387,0.024,0.773,0.05,1.156,0.089V104.129z M84.082,100.527V34.925h1.156v65.691C84.855,100.58,84.469,100.552,84.082,100.527z
		 M76.27,20.268c1.605-0.717,2.656-2.315,2.656-4.102c0-2.297-1.732-4.198-3.959-4.462c-0.447-1.359-0.381-2.82-0.38-2.871
		c0-4.041,3.288-7.329,7.329-7.329h0.167c4.041,0,7.328,3.288,7.329,7.368c0.001,0.017,0.07,1.467-0.379,2.832
		c-2.229,0.264-3.961,2.165-3.961,4.462c0,1.787,1.051,3.385,2.654,4.102c0.295,1.483,1.137,7.308-2.18,13.153h-7.095
		C75.135,27.575,75.976,21.75,76.27,20.268z M78.761,34.925h1.156v65.604c-0.387,0.022-0.772,0.052-1.156,0.088V34.925z
		 M49.432,134.531c0-16.348,12.108-29.915,27.825-32.219v2.021c-0.361,0.103-0.605,0.446-0.546,0.827
		c0.046,0.303,0.27,0.525,0.546,0.604v1.799c-12.848,2.254-22.646,13.485-22.646,26.97c0,13.483,9.797,24.716,22.646,26.969v1.712
		c-0.501-0.082-1.005-0.167-1.5-0.273c-0.408-0.09-0.807,0.168-0.895,0.572c-0.089,0.406,0.167,0.807,0.573,0.896
		c0.601,0.133,1.213,0.24,1.822,0.335v2.009C61.54,164.445,49.432,150.878,49.432,134.531z M78.761,168.445
		c0.219,0.021,0.439,0.033,0.658,0.05h-0.658V168.445z M85.238,168.495H84.58c0.219-0.017,0.439-0.029,0.658-0.05V168.495z
		 M86.742,166.75v-5.25c12.848-2.253,22.645-13.484,22.645-26.969c0-13.483-9.797-24.715-22.645-26.969v-5.25
		c15.719,2.304,27.826,15.871,27.826,32.219C114.568,150.878,102.461,164.445,86.742,166.75z"/>
	<path fill="#FFFFFF" d="M97.258,108.021c-0.597-0.346-1.211-0.672-1.824-0.973c-0.373-0.183-0.824-0.027-1.007,0.346
		c-0.182,0.373-0.028,0.823,0.345,1.006c0.584,0.285,1.168,0.597,1.734,0.924c0.118,0.068,0.247,0.102,0.375,0.102
		c0.262,0,0.514-0.136,0.652-0.377C97.74,108.688,97.617,108.229,97.258,108.021z"/>
	<path fill="#FFFFFF" d="M100.688,110.32c-0.33-0.256-0.801-0.193-1.056,0.136s-0.192,0.801,0.134,1.055
		c0.521,0.401,1.024,0.819,1.514,1.255c0.144,0.125,0.322,0.188,0.5,0.188c0.207,0,0.414-0.086,0.562-0.254
		c0.275-0.312,0.247-0.786-0.063-1.062C101.758,111.18,101.225,110.736,100.688,110.32z"/>
	<path fill="#FFFFFF" d="M109.732,125.771c0.195,0.623,0.373,1.258,0.525,1.89c0.083,0.345,0.391,0.575,0.729,0.575
		c0.06,0,0.119-0.008,0.18-0.021c0.402-0.097,0.65-0.504,0.555-0.908c-0.162-0.664-0.349-1.332-0.554-1.988
		c-0.126-0.396-0.547-0.615-0.944-0.49C109.828,124.952,109.607,125.375,109.732,125.771z"/>
	<path fill="#FFFFFF" d="M91.609,105.49c-0.646-0.215-1.313-0.411-1.981-0.582c-0.396-0.098-0.812,0.138-0.916,0.542
		c-0.103,0.401,0.14,0.812,0.542,0.915c0.635,0.162,1.27,0.349,1.883,0.553c0.078,0.025,0.158,0.038,0.236,0.038
		c0.314,0,0.609-0.199,0.714-0.515C92.218,106.046,92.004,105.621,91.609,105.49z"/>
	<path fill="#FFFFFF" d="M110.923,131.529c0.065,0.647,0.11,1.307,0.134,1.959c0.016,0.406,0.35,0.726,0.752,0.726
		c0.01,0,0.019,0,0.026,0c0.415-0.015,0.739-0.362,0.726-0.778c-0.023-0.685-0.07-1.377-0.141-2.059
		c-0.042-0.413-0.4-0.716-0.824-0.672C111.182,130.747,110.881,131.116,110.923,131.529z"/>
	<path fill="#FFFFFF" d="M108.482,148.291c-0.363-0.201-0.822-0.07-1.022,0.293c-0.317,0.574-0.653,1.137-1.009,1.688
		c-0.225,0.351-0.124,0.814,0.225,1.041c0.127,0.08,0.268,0.119,0.407,0.119c0.247,0,0.489-0.121,0.633-0.346
		c0.37-0.574,0.728-1.169,1.062-1.771C108.977,148.95,108.846,148.492,108.482,148.291z"/>
	<path fill="#FFFFFF" d="M111.757,136.736c-0.417-0.049-0.782,0.263-0.821,0.675c-0.063,0.649-0.149,1.304-0.259,1.946
		c-0.067,0.408,0.21,0.797,0.619,0.865c0.041,0.006,0.083,0.01,0.125,0.01c0.361,0,0.681-0.26,0.741-0.629
		c0.111-0.677,0.201-1.364,0.27-2.047C112.473,137.145,112.17,136.775,111.757,136.736z"/>
	<path fill="#FFFFFF" d="M83.645,165.068c0.414-0.021,0.732-0.375,0.711-0.791c-0.022-0.414-0.392-0.748-0.791-0.711
		c-0.52,0.027-1.065,0.047-1.564,0.041l-0.399-0.002c-0.379,0.009-0.757,0.326-0.763,0.74c-0.006,0.415,0.326,0.758,0.741,0.764
		l0.42,0.002c0.018,0,0.034,0,0.052,0C82.585,165.111,83.115,165.098,83.645,165.068z"/>
	<path fill="#FFFFFF" d="M110.712,142.68c-0.399-0.129-0.817,0.098-0.94,0.493c-0.194,0.625-0.414,1.25-0.646,1.856
		c-0.15,0.387,0.042,0.822,0.43,0.973c0.09,0.034,0.182,0.051,0.271,0.051c0.302,0,0.586-0.183,0.701-0.48
		c0.246-0.637,0.476-1.293,0.681-1.951C111.33,143.223,111.109,142.802,110.712,142.68z"/>
	<path fill="#FFFFFF" d="M105.174,114.577c-0.271-0.316-0.746-0.351-1.061-0.079c-0.315,0.271-0.352,0.746-0.08,1.061
		c0.431,0.5,0.844,1.015,1.229,1.529c0.147,0.197,0.375,0.303,0.604,0.303c0.155,0,0.313-0.051,0.448-0.15
		c0.334-0.249,0.4-0.721,0.152-1.053C106.061,115.643,105.625,115.102,105.174,114.577z"/>
	<path fill="#FFFFFF" d="M109.66,121.477c-0.293-0.619-0.61-1.234-0.944-1.834c-0.202-0.361-0.661-0.494-1.022-0.291
		c-0.363,0.203-0.492,0.662-0.291,1.024c0.318,0.569,0.617,1.151,0.898,1.744c0.129,0.271,0.398,0.43,0.682,0.43
		c0.107,0,0.218-0.022,0.32-0.071C109.678,122.299,109.839,121.852,109.66,121.477z"/>
	<path fill="#FFFFFF" d="M104.107,153.418c-0.426,0.498-0.869,0.98-1.325,1.448c-0.291,0.297-0.285,0.774,0.012,1.063
		c0.146,0.144,0.336,0.215,0.524,0.215c0.195,0,0.392-0.076,0.539-0.227c0.479-0.49,0.947-1.002,1.393-1.523
		c0.271-0.314,0.234-0.789-0.082-1.06C104.854,153.066,104.377,153.102,104.107,153.418z"/>
	<path fill="#FFFFFF" d="M66.698,159.262c-0.557-0.345-1.106-0.712-1.633-1.092c-0.336-0.24-0.807-0.165-1.05,0.173
		c-0.242,0.337-0.166,0.808,0.172,1.05c0.553,0.397,1.131,0.784,1.717,1.148c0.124,0.076,0.261,0.111,0.396,0.111
		c0.251,0,0.497-0.127,0.64-0.354C67.16,159.943,67.052,159.48,66.698,159.262z"/>
	<path fill="#FFFFFF" d="M57.51,118.248c0.237,0,0.471-0.112,0.617-0.322c0.371-0.531,0.767-1.061,1.177-1.572
		c0.26-0.324,0.207-0.797-0.117-1.058c-0.324-0.262-0.798-0.206-1.057,0.117c-0.431,0.537-0.847,1.094-1.237,1.653
		c-0.237,0.341-0.154,0.809,0.187,1.047C57.211,118.204,57.361,118.248,57.51,118.248z"/>
	<path fill="#FFFFFF" d="M66.207,109.973c0.137,0,0.275-0.037,0.398-0.113c0.556-0.349,1.126-0.678,1.696-0.983
		c0.367-0.196,0.506-0.651,0.31-1.019c-0.197-0.365-0.651-0.506-1.019-0.309c-0.6,0.32-1.201,0.669-1.786,1.034
		c-0.352,0.222-0.458,0.685-0.238,1.036C65.711,109.848,65.957,109.973,66.207,109.973z"/>
	<path fill="#FFFFFF" d="M99.855,157.48c-0.514,0.399-1.047,0.787-1.588,1.153c-0.346,0.231-0.436,0.7-0.203,1.044
		c0.146,0.217,0.384,0.331,0.625,0.331c0.146,0,0.291-0.042,0.42-0.129c0.57-0.386,1.132-0.794,1.67-1.213
		c0.328-0.256,0.387-0.729,0.132-1.056C100.654,157.285,100.184,157.227,99.855,157.48z"/>
	<path fill="#FFFFFF" d="M54.282,123.463c0.096,0.041,0.197,0.061,0.296,0.061c0.292,0,0.569-0.17,0.691-0.455
		c0.259-0.601,0.54-1.198,0.836-1.778c0.19-0.369,0.043-0.822-0.326-1.013c-0.37-0.188-0.823-0.045-1.013,0.326
		c-0.312,0.609-0.608,1.239-0.879,1.871C53.724,122.855,53.9,123.298,54.282,123.463z"/>
	<path fill="#FFFFFF" d="M53.537,140.5c-0.134-0.641-0.247-1.291-0.335-1.934c-0.058-0.412-0.438-0.7-0.85-0.643
		c-0.411,0.059-0.698,0.438-0.641,0.85c0.093,0.676,0.212,1.359,0.353,2.033c0.073,0.354,0.387,0.6,0.735,0.6
		c0.051,0,0.103-0.006,0.154-0.016C53.36,141.307,53.621,140.907,53.537,140.5z"/>
	<path fill="#FFFFFF" d="M52.923,134.654v-0.123c0-0.654,0.021-1.313,0.065-1.963c0.027-0.414-0.286-0.771-0.7-0.799
		c-0.414-0.031-0.774,0.285-0.801,0.699c-0.046,0.682-0.068,1.374-0.068,2.07v0.115c0,0.414,0.337,0.752,0.752,0.752
		C52.586,135.407,52.923,135.07,52.923,134.654z"/>
	<path fill="#FFFFFF" d="M52.624,129.268c0.051,0.01,0.102,0.016,0.152,0.016c0.35,0,0.663-0.245,0.736-0.602
		c0.131-0.642,0.285-1.283,0.458-1.908c0.111-0.399-0.125-0.814-0.525-0.926c-0.398-0.109-0.814,0.123-0.926,0.524
		c-0.181,0.657-0.343,1.333-0.48,2.008C51.955,128.787,52.217,129.184,52.624,129.268z"/>
	<path fill="#FFFFFF" d="M61.441,113.669c0.186,0,0.372-0.067,0.518-0.206c0.474-0.451,0.968-0.891,1.467-1.305
		c0.319-0.266,0.363-0.74,0.097-1.061s-0.74-0.363-1.059-0.099c-0.525,0.438-1.044,0.897-1.542,1.371
		c-0.302,0.287-0.313,0.764-0.027,1.063C61.044,113.591,61.243,113.669,61.441,113.669z"/>
	<path fill="#FFFFFF" d="M71.987,161.839c-0.616-0.226-1.229-0.474-1.82-0.737c-0.38-0.172-0.824,0-0.993,0.379s0,0.824,0.379,0.994
		c0.624,0.277,1.269,0.539,1.916,0.777c0.086,0.031,0.173,0.046,0.259,0.046c0.307,0,0.595-0.188,0.706-0.493
		C72.578,162.414,72.377,161.982,71.987,161.839z"/>
	<path fill="#FFFFFF" d="M89.372,162.665c-0.629,0.165-1.272,0.312-1.913,0.431c-0.408,0.077-0.677,0.473-0.6,0.881
		c0.068,0.359,0.385,0.611,0.738,0.611c0.047,0,0.094-0.004,0.141-0.013c0.675-0.13,1.353-0.281,2.016-0.455
		c0.402-0.104,0.643-0.517,0.537-0.918C90.186,162.799,89.777,162.562,89.372,162.665z"/>
	<path fill="#FFFFFF" d="M71.614,107.312c0.087,0,0.176-0.016,0.263-0.047c0.615-0.229,1.241-0.438,1.86-0.619
		c0.399-0.117,0.627-0.535,0.51-0.936c-0.117-0.398-0.538-0.625-0.934-0.509c-0.652,0.19-1.312,0.411-1.96,0.651
		c-0.39,0.146-0.588,0.578-0.444,0.969C71.021,107.125,71.31,107.312,71.614,107.312z"/>
	<path fill="#FFFFFF" d="M94.878,160.607c-0.582,0.289-1.183,0.561-1.785,0.81c-0.384,0.159-0.565,0.599-0.407,0.981
		c0.121,0.291,0.399,0.467,0.694,0.467c0.097,0,0.193-0.02,0.287-0.059c0.634-0.262,1.267-0.548,1.879-0.852
		c0.372-0.186,0.522-0.637,0.341-1.008C95.701,160.577,95.253,160.425,94.878,160.607z"/>
	<path fill="#FFFFFF" d="M54.596,144.277c-0.139-0.394-0.57-0.598-0.961-0.459c-0.392,0.141-0.595,0.57-0.457,0.961
		c0.229,0.646,0.484,1.291,0.756,1.92c0.124,0.283,0.4,0.451,0.69,0.451c0.1,0,0.202-0.02,0.3-0.062
		c0.381-0.165,0.555-0.608,0.39-0.989C55.056,145.502,54.813,144.889,54.596,144.277z"/>
	<path fill="#FFFFFF" d="M57.116,149.582c-0.214-0.355-0.678-0.468-1.033-0.254c-0.354,0.215-0.468,0.678-0.254,1.033
		c0.355,0.586,0.735,1.166,1.129,1.729c0.146,0.208,0.379,0.319,0.616,0.319c0.149,0,0.301-0.044,0.432-0.138
		c0.34-0.237,0.421-0.709,0.184-1.049C57.814,150.691,57.453,150.139,57.116,149.582z"/>
	<path fill="#FFFFFF" d="M60.655,154.277c-0.282-0.303-0.758-0.321-1.062-0.041c-0.304,0.281-0.323,0.759-0.041,1.063
		c0.463,0.499,0.952,0.993,1.453,1.466c0.145,0.139,0.331,0.207,0.516,0.207c0.2,0,0.398-0.08,0.546-0.236
		c0.286-0.303,0.272-0.777-0.029-1.062C61.56,155.223,61.096,154.754,60.655,154.277z"/>
</g>
</svg>
