<?xml version="1.0" encoding="utf-8"?>
<!-- Generator: Adobe Illustrator 16.0.0, SVG Export Plug-In . SVG Version: 6.00 Build 0)  -->
<!DOCTYPE svg PUBLIC "-//W3C//DTD SVG 1.1//EN" "http://www.w3.org/Graphics/SVG/1.1/DTD/svg11.dtd">
<svg version="1.1" id="Layer_1" xmlns="http://www.w3.org/2000/svg" xmlns:xlink="http://www.w3.org/1999/xlink" x="0px" y="0px"
	 width="164px" height="170px" viewBox="0 0 164 170" enable-background="new 0 0 164 170" xml:space="preserve">
<g>
	<path fill="#FFFFFF" d="M148.202,53.084h-3.795V33.599c0-8.711-7.087-15.798-15.798-15.798H35.391
		c-8.711,0-15.798,7.087-15.798,15.798v19.485h-3.794C7.087,53.084,0,60.171,0,68.882V136.4c0,8.713,7.087,15.799,15.798,15.799
		h132.404c8.711,0,15.798-7.086,15.798-15.799V68.882C164,60.171,156.913,53.084,148.202,53.084z M21.098,33.599
		c0-7.881,6.412-14.293,14.293-14.293h93.218c7.881,0,14.293,6.412,14.293,14.293v19.485h-12.476V35.655
		c0-2.074-1.688-3.762-3.762-3.762H37.334c-2.074,0-3.761,1.688-3.761,3.762v17.429H21.098V33.599z M128.922,53.084H35.078V35.655
		c0-1.245,1.012-2.257,2.257-2.257h89.331c1.244,0,2.257,1.012,2.257,2.257V53.084z M162.495,136.4
		c0,7.883-6.412,14.295-14.293,14.295H15.798c-7.882,0-14.294-6.412-14.294-14.295V68.882c0-7.882,6.412-14.294,14.294-14.294
		h132.404c7.881,0,14.293,6.412,14.293,14.294V136.4z"/>
	<path fill="#FFFFFF" d="M35.06,95.775c-11.157,0-20.233,9.076-20.233,20.234c0,11.156,9.076,20.232,20.233,20.232
		s20.233-9.076,20.233-20.232C55.293,104.852,46.217,95.775,35.06,95.775z M35.06,134.738c-10.328,0-18.729-8.402-18.729-18.729
		c0-10.328,8.401-18.73,18.729-18.73c10.327,0,18.729,8.402,18.729,18.73C53.789,126.336,45.387,134.738,35.06,134.738z"/>
	<path fill="#FFFFFF" d="M35.06,108.004c-4.415,0-8.006,3.59-8.006,8.006c0,4.414,3.591,8.006,8.006,8.006
		c4.414,0,8.006-3.592,8.006-8.006C43.065,111.594,39.474,108.004,35.06,108.004z M35.06,122.51c-3.584,0-6.501-2.916-6.501-6.5
		c0-3.586,2.917-6.502,6.501-6.502s6.501,2.916,6.501,6.502C41.561,119.594,38.644,122.51,35.06,122.51z"/>
	<path fill="#FFFFFF" d="M128.941,95.775c-11.157,0-20.234,9.076-20.234,20.234c0,11.156,9.077,20.232,20.234,20.232
		c11.156,0,20.233-9.076,20.233-20.232C149.175,104.852,140.098,95.775,128.941,95.775z M128.941,134.738
		c-10.328,0-18.729-8.402-18.729-18.729c0-10.328,8.401-18.73,18.729-18.73c10.327,0,18.729,8.402,18.729,18.73
		C147.67,126.336,139.269,134.738,128.941,134.738z"/>
	<path fill="#FFFFFF" d="M128.941,108.004c-4.415,0-8.007,3.59-8.007,8.006c0,4.414,3.592,8.006,8.007,8.006
		c4.413,0,8.005-3.592,8.005-8.006C136.946,111.594,133.354,108.004,128.941,108.004z M128.941,122.51
		c-3.586,0-6.503-2.916-6.503-6.5c0-3.586,2.917-6.502,6.503-6.502c3.584,0,6.5,2.916,6.5,6.502
		C135.441,119.594,132.525,122.51,128.941,122.51z"/>
	<path fill="#FFFFFF" d="M20.245,84.224h123.51c2.073,0,3.762-1.687,3.762-3.761v-8.488c0-2.074-1.688-3.762-3.762-3.762H20.245
		c-2.074,0-3.761,1.688-3.761,3.762v8.488C16.484,82.537,18.171,84.224,20.245,84.224z M81.248,82.72H50.371V69.718h30.877V82.72z
		 M82.752,69.718h30.878V82.72H82.752V69.718z M146.012,71.975v8.488c0,1.244-1.013,2.257-2.257,2.257h-28.621V69.718h28.621
		C144.999,69.718,146.012,70.729,146.012,71.975z M17.988,71.975c0-1.245,1.013-2.257,2.257-2.257h28.621V82.72H20.245
		c-1.244,0-2.257-1.013-2.257-2.257V71.975z"/>
	<path fill="#FFFFFF" d="M94.224,98.004H69.776c-2.074,0-3.762,1.688-3.762,3.762v23.203c0,2.072,1.688,3.762,3.762,3.762h24.447
		c2.074,0,3.762-1.689,3.762-3.762v-23.203C97.985,99.691,96.298,98.004,94.224,98.004z M69.776,99.508h24.447
		c1.244,0,2.257,1.014,2.257,2.258v10.85H67.52v-10.85C67.52,100.521,68.532,99.508,69.776,99.508z M94.224,127.225H69.776
		c-1.245,0-2.257-1.012-2.257-2.256v-10.85H96.48v10.85C96.48,126.213,95.468,127.225,94.224,127.225z"/>
</g>
</svg>
