<?xml version="1.0" encoding="utf-8"?>
<!-- Generator: Adobe Illustrator 16.0.0, SVG Export Plug-In . SVG Version: 6.00 Build 0)  -->
<!DOCTYPE svg PUBLIC "-//W3C//DTD SVG 1.1//EN" "http://www.w3.org/Graphics/SVG/1.1/DTD/svg11.dtd">
<svg version="1.1" id="Layer_1" xmlns="http://www.w3.org/2000/svg" xmlns:xlink="http://www.w3.org/1999/xlink" x="0px" y="0px"
	 width="164px" height="170px" viewBox="0 0 164 170" enable-background="new 0 0 164 170" xml:space="preserve">
<g>
	<path fill="#FFFFFF" d="M80.987,91.744c1.531,0,3.135-0.765,4.287-2.044c0.955-1.062,1.524-2.366,1.602-3.674
		c0.08-1.371-0.384-2.583-1.306-3.414c-0.731-0.658-1.676-1.005-2.73-1.005c-1.533,0-3.135,0.763-4.287,2.042
		c-0.956,1.062-1.524,2.367-1.601,3.675c-0.081,1.371,0.383,2.583,1.305,3.41C78.987,91.396,79.932,91.744,80.987,91.744z
		 M79.681,84.666c0.869-0.965,2.049-1.541,3.159-1.541c0.674,0,1.267,0.212,1.715,0.616c0.573,0.516,0.858,1.295,0.806,2.196
		c-0.056,0.965-0.488,1.939-1.215,2.747c-0.868,0.965-2.049,1.543-3.158,1.543c-0.674,0-1.267-0.215-1.716-0.619
		c-0.572-0.514-0.858-1.293-0.805-2.194C78.523,86.448,78.955,85.473,79.681,84.666z"/>
	<path fill="#FFFFFF" d="M91.021,81.919c1.533,0,3.136-0.764,4.287-2.044c0.956-1.062,1.525-2.367,1.602-3.674
		c0.082-1.371-0.382-2.583-1.305-3.414c-0.731-0.658-1.675-1.006-2.73-1.006c-1.532,0-3.135,0.764-4.287,2.042
		c-1.097,1.219-1.681,2.762-1.604,4.231c0.062,1.138,0.524,2.153,1.308,2.856C89.022,81.571,89.966,81.919,91.021,81.919z
		 M89.716,74.84c0.869-0.965,2.049-1.541,3.158-1.541c0.673,0,1.268,0.212,1.716,0.617c0.572,0.514,0.858,1.294,0.806,2.196
		c-0.058,0.965-0.488,1.94-1.216,2.747c-0.868,0.966-2.051,1.542-3.159,1.542c-0.673,0-1.266-0.213-1.715-0.619
		c-0.487-0.439-0.767-1.063-0.806-1.808C88.441,76.904,88.886,75.762,89.716,74.84z"/>
	<path fill="#FFFFFF" d="M100.637,72.095c1.532,0,3.135-0.764,4.287-2.044c0.955-1.062,1.524-2.367,1.602-3.674
		c0.081-1.371-0.382-2.583-1.306-3.414c-0.731-0.658-1.675-1.006-2.73-1.006c-1.532,0-3.135,0.764-4.286,2.043
		c-1.097,1.219-1.682,2.761-1.604,4.231c0.061,1.138,0.524,2.153,1.307,2.855C98.638,71.747,99.582,72.095,100.637,72.095z
		 M99.331,65.016c0.869-0.965,2.05-1.541,3.158-1.541c0.674,0,1.268,0.213,1.717,0.617c0.571,0.515,0.858,1.295,0.805,2.196
		c-0.058,0.965-0.488,1.941-1.216,2.748c-0.868,0.966-2.05,1.542-3.158,1.542c-0.673,0-1.266-0.214-1.715-0.619
		c-0.488-0.438-0.768-1.063-0.807-1.807C98.058,67.08,98.501,65.938,99.331,65.016z"/>
	<path fill="#FFFFFF" d="M71.162,100.315c1.532,0,3.135-0.765,4.287-2.044c2.016-2.241,2.149-5.421,0.297-7.088
		c-0.732-0.658-1.677-1.007-2.731-1.007c-1.532,0-3.134,0.765-4.286,2.044c-0.956,1.062-1.525,2.367-1.602,3.675
		c-0.081,1.371,0.383,2.583,1.305,3.411C69.163,99.966,70.106,100.315,71.162,100.315z M69.856,93.236
		c0.869-0.966,2.049-1.541,3.158-1.541c0.674,0,1.268,0.213,1.716,0.616c1.231,1.108,1.047,3.325-0.41,4.944
		c-0.87,0.966-2.051,1.541-3.159,1.541c-0.674,0-1.266-0.213-1.715-0.617c-0.572-0.515-0.858-1.295-0.805-2.195
		C68.698,95.021,69.129,94.043,69.856,93.236z"/>
	<path fill="#FFFFFF" d="M60.919,109.722c1.532,0,3.135-0.763,4.287-2.043c2.016-2.24,2.149-5.42,0.297-7.089
		c-0.732-0.657-1.677-1.005-2.731-1.005c-1.532,0-3.134,0.764-4.286,2.043c-0.956,1.062-1.525,2.368-1.602,3.675
		c-0.081,1.371,0.383,2.584,1.305,3.411C58.92,109.373,59.863,109.722,60.919,109.722z M59.614,102.644
		c0.868-0.966,2.049-1.541,3.158-1.541c0.674,0,1.268,0.213,1.716,0.616c1.231,1.107,1.047,3.325-0.41,4.944
		c-0.87,0.965-2.05,1.541-3.159,1.541c-0.674,0-1.266-0.213-1.715-0.617c-0.572-0.515-0.858-1.294-0.805-2.196
		C58.455,104.427,58.886,103.45,59.614,102.644z"/>
	<path fill="#FFFFFF" d="M46.691,120.211c0.73,0.659,1.675,1.008,2.73,1.008c1.532,0,3.135-0.764,4.288-2.044
		c2.016-2.24,2.149-5.419,0.296-7.088c-0.732-0.657-1.677-1.005-2.731-1.005c-1.532,0-3.134,0.764-4.286,2.043
		c-0.956,1.062-1.525,2.367-1.602,3.675C45.306,118.171,45.77,119.384,46.691,120.211z M48.116,114.141
		c0.869-0.965,2.049-1.542,3.158-1.542c0.675,0,1.268,0.214,1.717,0.617c1.23,1.107,1.046,3.326-0.41,4.944
		c-0.87,0.965-2.051,1.541-3.16,1.541c-0.674,0-1.266-0.214-1.714-0.617c-0.573-0.515-0.858-1.294-0.805-2.195
		C46.958,115.924,47.389,114.948,48.116,114.141z"/>
	<path fill="#FFFFFF" d="M144.041,22.705c-1.888,0-4.476,1.251-6.755,3.267c-1.58,1.397-2.829,2.995-3.52,4.498
		c-0.779,1.699-0.769,3.131,0.03,4.034c0.488,0.553,1.228,0.845,2.14,0.845c1.888,0,4.476-1.252,6.754-3.267
		c3.53-3.124,5.03-6.791,3.491-8.532C145.694,22.996,144.953,22.705,144.041,22.705z M141.685,30.943
		c-1.982,1.753-4.238,2.886-5.748,2.886c-0.324,0-0.761-0.058-1.003-0.332c-0.366-0.414-0.286-1.309,0.213-2.396
		c0.604-1.315,1.721-2.733,3.146-3.994c1.981-1.753,4.238-2.886,5.748-2.886c0.325,0,0.762,0.057,1.005,0.332
		C145.753,25.354,144.817,28.173,141.685,30.943z"/>
	<path fill="#FFFFFF" d="M157.577,6.125l-0.33-0.232c-2.153-1.521-4.177-0.162-4.886,0.707l-7.54,7.28
		c-0.472-0.09-0.953-0.139-1.443-0.139c-2.088,0-4.043,0.832-5.505,2.341l-11.991,12.386c-1.557,1.608-2.293,3.735-2.227,5.841
		l-42.25,40.779c0.079-0.275,0.002-0.583-0.229-0.783c-5.061-4.377-8.667-0.45-11.849,3.014l-0.249,0.271
		c-1.14,1.238-1.656,2.552-1.536,3.906c0.199,2.22,2.072,3.666,2.152,3.727c0.137,0.104,0.298,0.154,0.458,0.154
		c0.229,0,0.456-0.104,0.605-0.3c0.253-0.333,0.188-0.81-0.146-1.063c-0.014-0.01-1.42-1.118-1.558-2.651
		c-0.081-0.911,0.303-1.833,1.14-2.744l0.25-0.271c3.593-3.909,5.985-6.141,9.738-2.893c0.2,0.172,0.459,0.208,0.695,0.144
		L66.369,89.601c0.028-0.242-0.045-0.492-0.243-0.664c-5.06-4.375-8.667-0.449-11.849,3.013l-0.249,0.271
		c-1.14,1.238-1.655,2.552-1.535,3.905c0.198,2.221,2.072,3.666,2.152,3.727c0.137,0.104,0.298,0.154,0.458,0.154
		c0.229,0,0.457-0.104,0.605-0.301c0.253-0.334,0.188-0.809-0.146-1.063c-0.014-0.011-1.42-1.117-1.558-2.65
		c-0.081-0.911,0.302-1.834,1.14-2.743l0.25-0.272c3.593-3.908,5.984-6.142,9.738-2.892c0.157,0.136,0.354,0.193,0.546,0.182
		l-23.548,22.728c-1.052-1.358-2.24-2.119-3.538-2.251c-1.97-0.213-3.408,1.147-3.459,1.197l-23.776,22.132
		c-0.033,0.031-0.049,0.07-0.075,0.104c-1.716,0.34-3.272,1.385-4.631,3.144c-3.617,4.676-1.891,9.643-1.243,11.119l-3.621,3.495
		c-0.309,0.218-1.489,1.141-1.739,2.628c-0.181,1.077,0.154,2.166,0.997,3.239c2.219,2.822,5.322,5.402,5.724,5.732
		c0.267,0.275,1.327,1.258,2.947,1.258c0.976,0,2.154-0.356,3.484-1.437c0.958-0.777,5.852-4.69,14.531-11.613
		c1.086,0.571,3.178,1.453,5.757,1.453c2.027,0,3.97-0.545,5.771-1.623c2.31-1.382,3.675-3.146,4.058-5.241
		c0.344-1.885-0.198-3.79-1.008-5.308c0.861,0.215,1.836,0.367,2.899,0.367c2.028,0,3.97-0.545,5.771-1.623
		c2.31-1.382,3.675-3.146,4.058-5.241c0.262-1.436,0.003-2.879-0.489-4.159l6.913-5.509c2.509-1.999,3.716-2.96,4.271-3.493
		l0.028,0.052c0.112-0.06,1.101-0.626,1.374-1.969c0.28-1.373-0.31-2.986-1.75-4.794l10.228-9.971
		c0.424,0.53,1.642,1.854,3.44,2.103c0.198,0.028,0.395,0.042,0.592,0.042c1.146,0,2.282-0.464,3.384-1.382l0.282-0.236
		c3.597-2.99,7.66-6.381,3.655-11.596l3.442-3.354c0.021,0.063,0.039,0.131,0.079,0.189c0.056,0.082,1.409,2.025,3.617,2.332
		c0.197,0.027,0.394,0.041,0.591,0.041c1.145,0,2.282-0.463,3.384-1.383l0.282-0.233c3.616-3.009,7.715-6.419,3.594-11.687
		c-0.084-0.105-0.191-0.172-0.306-0.221l34.28-33.422c1.833-0.159,3.529-0.961,4.833-2.307l11.991-12.387
		c1.947-2.012,2.614-4.834,2.022-7.41c1.082-1.467,5.456-6.179,8.209-8.454c0.696-0.575,1.047-1.313,1.015-2.133
		C163.907,10.872,160.857,8.424,157.577,6.125z M125.922,39.671l3.864,3.937c1.122,1.144,2.534,1.888,4.07,2.17l-82.414,80.348
		c-1.326-1.058-3.027-1.893-4.892-1.893c-0.911,0-1.8,0.2-2.667,0.579l-5.514-6.077l85.557-82.58
		C124.271,37.445,124.933,38.663,125.922,39.671z M27.502,140.933c-0.032-0.085-0.078-0.167-0.143-0.238l-5.482-6.042l3.562-3.437
		l5.505,6.066c-0.628,0.415-1.243,0.925-1.84,1.548C28.449,139.516,27.926,140.222,27.502,140.933z M32.328,136.548l-5.796-6.388
		l5.907-5.702l5.558,6.127c0.115,0.126,0.265,0.188,0.419,0.219c-0.851,2.225-0.842,4.362-0.625,5.918
		c-0.912-0.419-1.911-0.684-2.96-0.684C33.977,136.038,33.143,136.215,32.328,136.548z M39.037,129.473l-5.506-6.068l3.746-3.615
		l5.249,5.784c-0.58,0.399-1.148,0.877-1.701,1.452C40.062,127.819,39.49,128.646,39.037,129.473z M36.173,113.046
		c0.009-0.01,1.009-0.935,2.278-0.793c0.899,0.099,1.762,0.722,2.572,1.812l-8.747,8.441c-0.152,0.017-0.301,0.068-0.423,0.177
		c-0.135,0.124-0.206,0.286-0.23,0.455l-10.884,10.504c-0.225-0.041-0.464,0.006-0.647,0.171c-0.195,0.177-0.263,0.432-0.227,0.673
		l-1.876,1.811c-0.777-0.678-2.39-1.859-4.459-2.17L36.173,113.046z M7.851,138.249c1.378-1.783,2.949-2.687,4.668-2.687
		c1.813,0,3.541,1.016,4.613,2.009c0.021,0.152,0.076,0.302,0.191,0.422c0.115,0.12,0.261,0.178,0.411,0.205
		c0.968,1.136,1.826,2.771,1.716,4.458c-0.102,1.555-1.008,2.987-2.695,4.261c-1.683,1.27-3.591,1.912-5.672,1.912h0
		c-1.688,0-3.081-0.428-3.835-0.718c-0.035-0.087-0.085-0.171-0.155-0.242c-0.103-0.108-0.234-0.164-0.369-0.197
		C6.131,146.283,4.815,142.175,7.851,138.249z M12.242,162.178c-2.649,2.151-4.209,0.502-4.374,0.312
		c-0.032-0.038-0.066-0.072-0.104-0.104c-0.033-0.026-3.308-2.7-5.526-5.523c-0.564-0.718-0.798-1.403-0.695-2.038
		c0.165-1.012,1.13-1.658,1.136-1.662c0.042-0.026,0.081-0.058,0.117-0.093l3.739-3.607c0.839,0.34,2.493,0.884,4.548,0.884
		c0,0,0,0,0.001,0c2.417,0,4.634-0.746,6.586-2.22c2.056-1.549,3.164-3.357,3.295-5.371c0.132-2.044-0.818-3.98-1.932-5.357
		l1.752-1.69l5.451,6.006c0.15,0.165,0.356,0.249,0.562,0.249c0.06,0,0.118-0.018,0.176-0.031c-1.848,3.996-0.706,7.896-0.397,8.79
		C18.024,157.544,13.196,161.403,12.242,162.178z M40.138,140.453c1.064,1.342,2.066,3.518,1.685,5.605
		c-0.3,1.647-1.425,3.064-3.343,4.211c-1.562,0.936-3.242,1.407-4.992,1.407c-2.323,0-4.216-0.835-5.122-1.319
		c-0.013-0.021-0.018-0.046-0.034-0.065c-0.102-0.127-0.238-0.199-0.382-0.242c-0.408-1.26-1.627-6.122,2.25-10.17
		c1.477-1.542,3.036-2.324,4.63-2.324c1.336,0,2.494,0.538,3.395,1.152c0.071,0.227,0.125,0.369,0.139,0.404
		c0.056,0.142,0.151,0.264,0.275,0.349c0.045,0.03,0.493,0.334,1.24,0.69C39.994,140.279,40.085,140.388,40.138,140.453z
		 M53.543,134.255c-0.301,1.646-1.425,3.063-3.343,4.211c-1.563,0.935-3.243,1.408-4.993,1.408c-1.834,0-3.393-0.522-4.419-0.98
		c-0.368-0.389-0.792-0.766-1.255-1.117c-0.46-1.741-1.105-6.056,2.388-9.701c1.478-1.542,3.036-2.323,4.63-2.323
		c1.685,0,3.089,0.846,4.043,1.638c0.021,0.157,0.077,0.311,0.196,0.432c0.145,0.149,0.335,0.224,0.529,0.228
		c0.261,0.266,0.45,0.488,0.539,0.601C52.922,129.99,53.923,132.167,53.543,134.255z M65.652,119.115
		c-0.125,0.673-0.604,0.961-0.612,0.967c-0.041,0.021-0.08,0.047-0.116,0.077c-0.045,0.035-1.704,1.357-4.409,3.513l-6.632,5.284
		c-0.264-0.462-0.548-0.887-0.839-1.253c-0.146-0.183-0.31-0.367-0.481-0.55l11.724-11.431
		C65.606,117.42,65.764,118.505,65.652,119.115z M82.338,104.045l-0.282,0.234c-0.947,0.789-1.887,1.135-2.787,1.006
		c-1.474-0.2-2.475-1.54-2.566-1.668l9.164-8.934C88.66,98.455,86.34,100.715,82.338,104.045z M100.757,80.455
		c3.06,3.909,0.714,6.188-3.369,9.584l-0.282,0.235c-0.945,0.788-1.882,1.131-2.785,1.005c-1.528-0.207-2.559-1.653-2.583-1.688
		c-0.093-0.136-0.227-0.219-0.369-0.271l9.293-9.058C100.687,80.328,100.711,80.396,100.757,80.455z M151.66,30.127l-11.991,12.387
		c-1.172,1.211-2.74,1.878-4.414,1.878c-1.659,0-3.216-0.656-4.386-1.848l-3.864-3.938c-1.052-1.072-1.627-2.438-1.779-3.843
		c0.061-0.193,0.041-0.399-0.057-0.582c-0.035-1.682,0.561-3.375,1.805-4.659l11.99-12.386c1.172-1.211,2.74-1.878,4.414-1.878
		c0.461,0,0.913,0.056,1.352,0.154c0.047,0.021,0.097,0.026,0.146,0.037c1.085,0.272,2.08,0.833,2.888,1.656l3.866,3.938
		c0.732,0.747,1.221,1.642,1.517,2.587c-0.021,0.2,0.038,0.4,0.163,0.557C153.762,26.258,153.223,28.513,151.66,30.127z
		 M162.018,14.149c-2.28,1.884-6.034,5.771-7.834,7.934c-0.366-0.76-0.853-1.473-1.471-2.103l-3.867-3.938
		c-0.694-0.708-1.5-1.258-2.376-1.646l7.002-6.765c0.139-0.164,1.39-1.566,2.9-0.499l0.334,0.235c1.559,1.093,5.7,3.995,5.776,5.878
		C162.491,13.48,162.445,13.795,162.018,14.149z"/>
</g>
</svg>
