<?xml version="1.0" encoding="utf-8"?>
<!-- Generator: Adobe Illustrator 16.0.0, SVG Export Plug-In . SVG Version: 6.00 Build 0)  -->
<!DOCTYPE svg PUBLIC "-//W3C//DTD SVG 1.1//EN" "http://www.w3.org/Graphics/SVG/1.1/DTD/svg11.dtd">
<svg version="1.1" id="Layer_1" xmlns="http://www.w3.org/2000/svg" xmlns:xlink="http://www.w3.org/1999/xlink" x="0px" y="0px"
	 width="164px" height="170px" viewBox="0 0 164 170" enable-background="new 0 0 164 170" xml:space="preserve">
<path fill="#FFFFFF" d="M158.43,110.932c-8.757-10.794-13.085-11.424-19.075-12.297c-0.589-0.086-1.193-0.174-1.82-0.275
	c-6.684-1.079-8.621-2.597-11.521-9.018c-0.226-0.501-0.474-1.068-0.745-1.688c-2.565-5.86-7.338-16.769-14.922-20.028
	c-1.95-0.839-5.931-1.823-8.478-0.2c-1.481,0.944-2.267,2.573-2.333,4.843c-0.119,4.038,2.695,7.368,5.177,10.306
	c2.266,2.681,4.222,4.995,3.29,7.006c-0.718,1.552-3.807,4.236-6.205,3.952L39.169,32.55c-0.047-0.046-0.104-0.072-0.158-0.103
	l2.475-2.476c0.12-0.119,0.195-0.276,0.215-0.444c0.013-0.116,1.192-11.682-9.818-13.999c-8.139-1.713-11.5-3.995-17.604-8.137
	l-0.104-0.067c-0.057-0.046-1.423-1.107-3.314-1.107c-1.453,0-3.584,0.646-5.476,3.719c-0.153,0.25-0.147,0.566,0.017,0.81
	l1.835,2.725c-0.028,0.021-0.062,0.032-0.089,0.058l-4,3.902l-1.863-1.911c-0.288-0.296-0.763-0.301-1.058-0.014
	c-0.296,0.288-0.302,0.762-0.014,1.057l4.394,4.505c0.146,0.15,0.342,0.226,0.535,0.226c0.188,0,0.377-0.07,0.522-0.212
	c0.296-0.289,0.302-0.762,0.014-1.058L4.191,18.5l3.882-3.786l5.119,7.601c-0.001,0.001-0.002,0.001-0.003,0.002L9.19,26.218
	l-1.864-1.911c-0.289-0.295-0.762-0.3-1.058-0.013c-0.296,0.288-0.302,0.762-0.014,1.058l4.394,4.504
	c0.146,0.149,0.341,0.225,0.535,0.225c0.188,0,0.377-0.07,0.522-0.212c0.296-0.288,0.302-0.762,0.014-1.058l-1.485-1.522
	l3.807-3.714l4.956,7.359c-0.031,0.022-0.067,0.034-0.096,0.062l-3.999,3.901l-1.864-1.911c-0.288-0.294-0.761-0.3-1.058-0.013
	c-0.295,0.288-0.301,0.762-0.013,1.058l4.394,4.504c0.146,0.149,0.341,0.225,0.535,0.225c0.188,0,0.377-0.07,0.522-0.212
	c0.295-0.288,0.301-0.762,0.013-1.058l-1.485-1.522l3.888-3.792l5.116,7.598l-3.786,3.693L19.3,41.556
	c-0.288-0.294-0.761-0.301-1.058-0.013c-0.295,0.288-0.301,0.762-0.013,1.058l4.395,4.504c0.146,0.149,0.341,0.225,0.534,0.225
	c0.188,0,0.377-0.07,0.522-0.212c0.296-0.288,0.302-0.762,0.013-1.058l-1.485-1.522l3.592-3.503l1.354,2.011
	c0.125,0.186,0.326,0.305,0.548,0.326c0.024,0.003,0.049,0.004,0.072,0.004c0.197,0,0.388-0.078,0.528-0.22l3.6-3.6
	c0.034,0.106,0.085,0.208,0.167,0.293l49.258,51.19c-0.013,0.064-0.031,0.127-0.026,0.195c0.002,0.031,0.169,3.158-2.149,5.091
	c-2.143,1.784-3.635,2.218-8.047-1.533c-3.75-3.188-9.419-8.007-14.968-4.223c-1.271,0.868-1.943,2.227-1.942,3.93
	c0.002,4.644,5.088,11.572,9.634,14.664c5.456,3.711,19.47,11.601,19.634,11.691c0.065,0.034,6.591,3.475,9.53,11.247
	c0.282,0.746,0.574,1.541,0.88,2.37c3.124,8.49,7.401,20.118,16.842,24.839c4.929,2.464,9.746,4.473,15.069,4.473
	c6.457,0,13.657-2.954,22.697-11.633C165.122,136.174,168.283,123.076,158.43,110.932z M27.887,41.456L6.916,10.318
	c1.166-1.73,2.491-2.606,3.943-2.606c1.357,0,2.381,0.779,2.432,0.817l0.146,0.1c6.056,4.108,9.71,6.589,18.137,8.362
	c8.935,1.881,8.774,10.487,8.661,12.116L27.887,41.456z M32.83,38.628l5.178-5.179c0.034,0.06,0.066,0.121,0.118,0.172l82.63,80.457
	l-7.8,7.675l-79.81-82.94C33.056,38.719,32.945,38.664,32.83,38.628z M125.76,118.95l-7.962,7.835l-3.806-3.954l7.835-7.71
	L125.76,118.95z M122.893,114.072l2.317-2.28c0.421-0.414,0.98-0.642,1.575-0.642c0.608,0,1.176,0.236,1.597,0.666l0.705,0.715
	c0.418,0.425,0.646,0.989,0.641,1.591s-0.241,1.162-0.667,1.581l-2.234,2.198L122.893,114.072z M135.479,120.864l7.892,8.019
	l-15.698,15.446l-7.891-8.015L135.479,120.864z M122.436,131.605l-3.602-3.743l7.998-7.869l3.72,3.623L122.436,131.605z
	 M116.73,127.834l-2.605,2.564c-0.848,0.837-2.335,0.825-3.174-0.024l-0.701-0.713c-0.418-0.424-0.646-0.989-0.642-1.591
	c0.005-0.602,0.241-1.162,0.667-1.58l2.651-2.61L116.73,127.834z M147.444,151.072c-15.794,15.159-25.677,12.095-36.062,6.901
	c-8.91-4.455-13.07-15.763-16.107-24.018c-0.307-0.834-0.601-1.633-0.885-2.384c-3.141-8.304-9.954-11.897-10.22-12.032
	c-0.141-0.079-14.098-7.938-19.501-11.612c-4.151-2.824-8.979-9.306-8.98-13.43c0-1.22,0.422-2.101,1.29-2.692
	c4.262-2.905,8.479,0.148,13.156,4.126c4.433,3.767,6.854,4.14,9.973,1.542c1.851-1.543,2.434-3.634,2.613-4.985l29.169,30.314
	l-2.664,2.621c-0.709,0.698-1.104,1.635-1.112,2.635c-0.008,1.001,0.373,1.942,1.071,2.652l0.702,0.712
	c0.706,0.717,1.652,1.112,2.664,1.112c0.99,0,1.922-0.38,2.623-1.071l2.595-2.552l3.602,3.742l-3.17,3.119
	c-0.141,0.139-0.221,0.328-0.223,0.526s0.076,0.39,0.215,0.53l8.939,9.081c0.146,0.147,0.338,0.223,0.532,0.223
	c0.188,0,0.379-0.071,0.524-0.215l16.765-16.495c0.142-0.139,0.221-0.328,0.223-0.526c0.002-0.199-0.075-0.39-0.215-0.531
	l-8.94-9.083c-0.289-0.293-0.763-0.299-1.058-0.008l-3.345,3.293l-3.721-3.623l2.212-2.177c0.71-0.698,1.105-1.634,1.113-2.635
	s-0.373-1.942-1.07-2.651l-0.704-0.716c-0.706-0.717-1.651-1.111-2.663-1.111c-0.99,0-1.922,0.38-2.624,1.07l-2.34,2.304
	l-18.592-18.103c2.722-0.581,5.396-3.136,6.13-4.719c1.331-2.876-1.019-5.656-3.506-8.6c-2.309-2.733-4.926-5.831-4.823-9.297
	c0.05-1.744,0.604-2.965,1.641-3.626c2.024-1.293,5.519-0.361,7.084,0.312c7.042,3.027,11.661,13.583,14.143,19.255
	c0.273,0.626,0.525,1.199,0.753,1.703c3.104,6.874,5.468,8.72,12.646,9.88c0.635,0.102,1.246,0.191,1.842,0.278
	c5.655,0.823,9.741,1.419,18.131,11.759C166.531,123.289,163.41,135.745,147.444,151.072z"/>
</svg>
