<?xml version="1.0" encoding="utf-8"?>
<!-- Generator: Adobe Illustrator 16.0.0, SVG Export Plug-In . SVG Version: 6.00 Build 0)  -->
<!DOCTYPE svg PUBLIC "-//W3C//DTD SVG 1.1//EN" "http://www.w3.org/Graphics/SVG/1.1/DTD/svg11.dtd">
<svg version="1.1" id="Layer_1" xmlns="http://www.w3.org/2000/svg" xmlns:xlink="http://www.w3.org/1999/xlink" x="0px" y="0px"
	 width="164px" height="170px" viewBox="0 0 164 170" enable-background="new 0 0 164 170" xml:space="preserve">
<g>
	<path fill="#FFFFFF" d="M101.604,124.431c-0.375,0.179-0.533,0.629-0.352,1.003c0.244,0.511,0.275,1.086,0.088,1.62
		s-0.572,0.963-1.086,1.208c-0.51,0.244-1.088,0.275-1.617,0.089c-0.535-0.188-0.965-0.572-1.213-1.09
		c-0.02-0.042-2.033-4.322-1.311-14.956c0-1.998-1.625-3.624-3.623-3.624c-2,0-3.625,1.626-3.625,3.624
		c0,0.415,0.336,0.753,0.752,0.753c0.414,0,0.752-0.338,0.752-0.753c0-1.168,0.951-2.119,2.121-2.119
		c1.168,0,2.119,0.951,2.121,2.068c-0.756,11.065,1.373,15.491,1.459,15.664c0.42,0.873,1.154,1.531,2.066,1.852
		c0.395,0.139,0.801,0.207,1.205,0.207c0.535,0,1.066-0.12,1.564-0.358c0.873-0.418,1.531-1.151,1.854-2.065
		c0.32-0.913,0.266-1.897-0.152-2.77C102.428,124.409,101.98,124.249,101.604,124.431z"/>
	<path fill="#FFFFFF" d="M88.494,125.04h-1.998h-8.992h-1.998c-0.416,0-0.752,0.337-0.752,0.752s0.337,0.752,0.752,0.752h1.998
		h8.992h1.998c0.414,0,0.752-0.337,0.752-0.752S88.908,125.04,88.494,125.04z"/>
	<path fill="#FFFFFF" d="M113.193,134.39c-1.639-3.454-2.824-5.949-1.238-13.438c0.064-0.3-0.061-0.609-0.316-0.779
		c-0.254-0.174-0.588-0.172-0.84,0.002c-0.012,0.007-1.123,0.735-2.477,0.736c-3.148,0-4.582-3.943-5.229-7.252
		c-2.145-10.952,0.182-13.552,6.205-15.239c0.299-0.083,0.514-0.34,0.547-0.647c0.031-0.306-0.129-0.602-0.402-0.744
		c-0.031-0.017-3.145-1.715-1.615-7.766c0.682-2.698,2.477-12.056-3.055-19.16c-3.379-4.336-8.795-6.997-16.131-7.959l-2.066-34.5
		h4.045c0.24,2.155,1.482,3.755,3.033,3.755c1.729,0,3.082-1.98,3.082-4.507s-1.354-4.507-3.082-4.507
		c-1.551,0-2.793,1.6-3.033,3.754h-4.135l-0.857-14.312h5.529c0.328,0,0.619-0.214,0.717-0.528s-0.02-0.655-0.289-0.843
		c-2.33-1.613-8.461-6.517-8.84-9.79C82.703,0.287,82.381,0,82,0s-0.703,0.287-0.747,0.666c-0.377,3.271-6.509,8.176-8.839,9.79
		c-0.271,0.188-0.388,0.529-0.29,0.843c0.098,0.314,0.389,0.528,0.718,0.528h5.528l-0.857,14.312h-4.136
		c-0.239-2.155-1.48-3.754-3.032-3.754c-1.729,0-3.083,1.979-3.083,4.507s1.354,4.507,3.083,4.507c1.552,0,2.793-1.6,3.032-3.755
		h4.046l-2.065,34.5c-7.336,0.963-12.753,3.623-16.13,7.959c-5.532,7.103-3.738,16.461-3.056,19.16
		c1.509,5.976-1.495,7.699-1.616,7.766c-0.274,0.143-0.433,0.438-0.401,0.744c0.032,0.308,0.249,0.564,0.546,0.647
		c6.024,1.688,8.351,4.287,6.208,15.239c-0.647,3.308-2.081,7.252-5.231,7.252c-1.356,0-2.465-0.73-2.474-0.736
		c-0.254-0.174-0.587-0.175-0.842-0.003c-0.255,0.171-0.38,0.48-0.316,0.78c1.586,7.488,0.401,9.983-1.238,13.438
		c-1.489,3.137-3.342,7.041-3.523,15.862c-0.161,7.832,5.851,13.733,17.386,17.065c8.534,2.464,17.229,2.681,17.316,2.683
		c0.005,0,0.011,0,0.016,0s0.011,0,0.016,0c0.087-0.002,8.783-0.219,17.316-2.683c11.535-3.332,17.547-9.233,17.387-17.065
		C116.537,141.432,114.682,137.526,113.193,134.39z M93.654,23.889c0.746,0,1.578,1.233,1.578,3.002c0,1.77-0.832,3.003-1.578,3.003
		s-1.578-1.233-1.578-3.003C92.076,25.122,92.908,23.889,93.654,23.889z M70.344,29.895c-0.747,0-1.579-1.233-1.579-3.003
		c0-1.77,0.832-3.002,1.579-3.002c0.746,0,1.578,1.233,1.578,3.002C71.922,28.662,71.09,29.895,70.344,29.895z M79.919,11.12
		c0.013-0.207-0.061-0.41-0.203-0.561s-0.34-0.237-0.547-0.237h-4.061C77.2,8.678,80.509,5.802,82,3.02
		c1.491,2.782,4.799,5.658,6.891,7.303h-4.059c-0.209,0-0.406,0.086-0.549,0.237s-0.215,0.354-0.203,0.561l5.445,90.943H74.474
		L79.919,11.12z M84.957,168.312c-1.697,0.141-2.803,0.179-2.958,0.183c-0.155-0.004-1.26-0.042-2.958-0.183
		c0.024-0.073,0.046-0.149,0.046-0.23v-25.141c0-0.123-0.03-0.242-0.086-0.352l-2.75-5.224h11.494l-2.75,5.224
		c-0.057,0.109-0.086,0.229-0.086,0.352v25.141C84.91,168.163,84.934,168.239,84.957,168.312z M86.395,168.181
		c0.004-0.034,0.02-0.064,0.02-0.099v-24.955l3.244-6.162c0.123-0.233,0.115-0.515-0.021-0.74c-0.137-0.225-0.381-0.363-0.645-0.363
		H75.007c-0.264,0-0.508,0.139-0.644,0.363c-0.136,0.226-0.145,0.507-0.021,0.74l3.243,6.162v24.955c0,0.034,0.015,0.064,0.02,0.099
		c-9.102-0.925-29.094-4.483-28.818-17.897c0.174-8.499,1.876-12.085,3.378-15.248c1.592-3.354,2.871-6.049,1.636-12.936
		c0.529,0.175,1.173,0.316,1.875,0.316c2.304,0,5.338-1.47,6.708-8.469c2.167-11.07-0.354-14.653-5.958-16.568
		c1.094-1.242,2.386-3.804,1.204-8.484c-0.64-2.532-2.329-11.302,2.784-17.867c3.084-3.959,8.069-6.418,14.852-7.357l-2.341,39.1
		c-0.013,0.206,0.062,0.409,0.204,0.561c0.142,0.151,0.34,0.236,0.547,0.236h16.649c0.006,0.001,0.014,0,0.02,0
		c0.416,0,0.752-0.337,0.752-0.752c0-0.076-0.012-0.148-0.031-0.217L88.732,63.67c6.785,0.938,11.77,3.398,14.854,7.357
		c5.111,6.565,3.422,15.334,2.783,17.867c-1.182,4.682,0.111,7.243,1.205,8.484c-5.605,1.915-8.123,5.498-5.959,16.568
		c1.369,6.999,4.404,8.469,6.707,8.469c0.703,0,1.346-0.142,1.877-0.316c-1.236,6.888,0.043,9.582,1.635,12.936
		c1.502,3.163,3.205,6.75,3.379,15.248C115.488,163.697,95.498,167.256,86.395,168.181z"/>
	<path fill="#FFFFFF" d="M75.135,112.305c0-1.998-1.626-3.624-3.625-3.624s-3.625,1.626-3.623,3.675
		c0.721,10.583-1.293,14.863-1.317,14.912c-0.244,0.511-0.673,0.896-1.207,1.083c-0.536,0.188-1.11,0.156-1.621-0.09
		c-0.511-0.244-0.896-0.673-1.083-1.207c-0.188-0.534-0.157-1.109,0.088-1.62c0.18-0.375,0.021-0.824-0.353-1.004
		c-0.374-0.179-0.824-0.021-1.003,0.354c-0.419,0.873-0.472,1.856-0.151,2.77c0.321,0.914,0.98,1.647,1.853,2.064
		c0.497,0.239,1.03,0.359,1.565,0.359c0.405,0,0.811-0.069,1.205-0.207c0.913-0.321,1.646-0.979,2.059-1.842
		c0.091-0.183,2.221-4.608,1.468-15.623c0-1.168,0.951-2.119,2.12-2.119s2.12,0.951,2.12,2.119c0,0.415,0.337,0.753,0.752,0.753
		C74.798,113.058,75.135,112.72,75.135,112.305z"/>
</g>
</svg>
