<?xml version="1.0" encoding="utf-8"?>
<!-- Generator: Adobe Illustrator 16.0.0, SVG Export Plug-In . SVG Version: 6.00 Build 0)  -->
<!DOCTYPE svg PUBLIC "-//W3C//DTD SVG 1.1//EN" "http://www.w3.org/Graphics/SVG/1.1/DTD/svg11.dtd">
<svg version="1.1" id="Layer_1" xmlns="http://www.w3.org/2000/svg" xmlns:xlink="http://www.w3.org/1999/xlink" x="0px" y="0px"
	 width="164px" height="170px" viewBox="0 0 164 170" enable-background="new 0 0 164 170" xml:space="preserve">
<path fill="#FFFFFF" d="M129.119,0.22c-0.295-0.294-0.771-0.293-1.064,0.001l-25.883,25.912c-1.158-0.933-2.629-1.495-4.23-1.495
	c-3.726,0-6.756,3.031-6.756,6.757c0,0.618,0.09,1.213,0.246,1.782c-1.204-0.027-2.459,0.005-3.748,0.02
	c0.16-0.581,0.248-1.184,0.248-1.802c0-1.805-0.704-3.501-1.98-4.779c-1.276-1.275-2.974-1.978-4.778-1.978
	s-3.501,0.703-4.778,1.978c-1.276,1.277-1.98,2.974-1.98,4.779c0,0.556,0.075,1.098,0.204,1.624c-7.287,0.464-14.802,1.574-19,3.448
	H35.413c-0.416,0-0.753,0.337-0.753,0.753s0.337,0.753,0.753,0.753h17.782c-0.462,0.439-0.765,0.908-0.882,1.408
	c-0.042,0.101-0.067,0.209-0.061,0.325c0,0.009,0.002,0.041,0.005,0.083c-0.001,0.021-0.006,0.042-0.006,0.063
	c0,0.068,0.015,0.134,0.021,0.201c0.069,1.17,0.318,5.254,0.752,11.163c-0.085,0.208-0.063,0.441,0.047,0.642
	c1.204,16.267,3.749,45.465,7.733,66.198c-0.078,0.118-0.134,0.253-0.134,0.405c0,0.553,0.191,1.085,0.529,1.597
	c0.171,0.847,0.345,1.68,0.521,2.492c0.194,0.893,0.396,1.751,0.603,2.589c-0.019,0.037-0.047,0.068-0.06,0.109l-9.793,31.828
	c-0.123,0.398,0.101,0.819,0.498,0.941c0.074,0.022,0.148,0.033,0.222,0.033c0.321,0,0.62-0.208,0.719-0.531l9.134-29.686
	c5.725,20.119,15.445,22.864,19.119,23.15v18.262c0,0.416,0.337,0.753,0.753,0.753c0.415,0,0.753-0.337,0.753-0.753v-18.246
	c1.938,0.117,13.609-0.142,20.167-23.005l9.09,29.524c0.101,0.323,0.397,0.531,0.72,0.531c0.073,0,0.148-0.011,0.222-0.033
	c0.397-0.122,0.621-0.544,0.498-0.941l-9.794-31.813c0.22-0.882,0.433-1.791,0.638-2.734c0.188-0.867,0.373-1.758,0.556-2.664
	c0.259-0.453,0.399-0.921,0.399-1.403c0-0.106-0.023-0.207-0.063-0.299c4.029-20.887,6.61-50.426,7.819-66.648
	c0.006-0.052,0.017-0.103,0.012-0.155c0.347-4.666,0.579-8.212,0.698-10.108c0.332-0.442,0.516-0.907,0.516-1.398
	c0-2.867-5.823-4.575-11.119-5.535c0.428-0.886,0.675-1.875,0.675-2.923c0-1.584-0.553-3.04-1.469-4.193l25.886-25.917
	C129.414,0.991,129.414,0.514,129.119,0.22z M97.941,26.144c2.897,0,5.255,2.356,5.255,5.251c0,2.896-2.357,5.252-5.255,5.252
	c-2.896,0-5.25-2.356-5.25-5.252C92.691,28.5,95.046,26.144,97.941,26.144z M77.46,27.682c0.992-0.991,2.311-1.538,3.713-1.538
	c1.402,0,2.721,0.546,3.713,1.537c0.992,0.992,1.539,2.311,1.539,3.713c0,1.403-0.547,2.722-1.539,3.714
	c-0.992,0.992-2.312,1.538-3.714,1.538s-2.721-0.546-3.712-1.538c-0.992-0.991-1.539-2.31-1.539-3.713
	C75.921,29.993,76.468,28.673,77.46,27.682z M104.34,119.315c-0.487,0.683-1.524,1.383-2.99,2.014
	c0.159-0.815,0.403-2.198,0.631-4.012c0.384-3.075,0.525-3.793,0.518-4.797h0.006c0.146-2.639-1.147-4.433-3.167-4.939
	c3.612-15.232,4.146-32.829,4.214-36.09c2.165-0.263,3.719-2.043,3.837-4.511c0.009-0.078,0.207-1.921,0.234-4.883
	c0.027-3.111,0.029-4.796-0.039-4.796h0.005c-0.046-0.878-0.256-1.632-0.573-2.278c2.285-0.585,4.049-1.243,5.28-1.967
	C111.011,69.934,108.383,99.124,104.34,119.315z M84.56,107.988V72.986c2.021-0.354,3.292-2.134,3.292-4.752v-9.591
	c0-0.482-0.054-0.923-0.131-1.343c3.972-0.003,7.702-0.374,11.132-0.815c-0.07,0.411-0.113,0.831-0.089,1.267
	c0.004,0.061,0.016,0.12,0.032,0.176c0.01,0.298,0.016,1.218-0.044,4.041c-0.055,2.749-0.246,4.463-0.252,4.53
	c-0.115,2.482,1.374,4.473,3.546,4.932c-0.064,3.124-0.589,20.819-4.251,36.043c-2.273,0.188-3.959,2.022-4.111,4.535
	c-0.003,0.062,0,0.121,0.011,0.178c-0.024,0.298-0.126,1.211-0.511,4.007c-0.374,2.728-0.761,4.407-0.775,4.473
	c-0.162,0.989-0.053,1.963,0.297,2.817c-1.602,0.223-3.296,0.395-5.06,0.497c0.125-0.503,0.206-1.042,0.206-1.638v-9.591
	C87.852,110.06,86.604,108.305,84.56,107.988z M79.606,112.754l0.036,9.588c0,0.597,0.087,1.141,0.223,1.647
	c-1.796-0.085-3.526-0.246-5.194-0.46c0.365-0.869,0.484-1.867,0.311-2.914c-0.004-0.017-0.392-1.696-0.766-4.424
	c-0.383-2.791-0.482-3.708-0.507-4.006c0.011-0.058,0.015-0.122,0.011-0.185c-0.153-2.519-1.85-4.357-4.135-4.53
	c-3.64-15.204-4.167-32.911-4.232-36.041c0.983-0.205,1.853-0.71,2.486-1.493c0.747-0.923,1.124-2.145,1.058-3.489
	c-0.002-0.018-0.194-1.73-0.25-4.479c-0.06-2.822-0.053-3.741-0.043-4.039c0.017-0.056,0.028-0.113,0.031-0.175
	c0.023-0.416-0.014-0.818-0.078-1.21c3.483,0.424,7.238,0.75,11.21,0.754c-0.095,0.424-0.162,0.868-0.162,1.346l0.036,9.588
	c0,2.583,1.345,4.396,3.411,4.752v35.02C80.989,108.396,79.606,110.234,79.606,112.754z M62.615,119.459
	c-4.048-20.168-6.663-49.397-7.938-66.326c1.315,0.745,3.201,1.419,5.644,2.014c-0.28,0.618-0.463,1.333-0.505,2.154h0.004
	c-0.069,0-0.068,1.688-0.037,4.795c0.024,2.963,0.224,4.797,0.229,4.827c0.117,2.511,1.669,4.303,3.836,4.568
	c0.069,3.259,0.61,20.842,4.233,36.087c-2.028,0.501-3.33,2.296-3.181,4.942h0.003c-0.009,1.004,0.131,1.724,0.518,4.797
	c0.256,2.032,0.528,3.515,0.677,4.257C64.414,120.922,63.212,120.186,62.615,119.459z M66.78,55.806
	c0.02,0.101,0.056,0.193,0.112,0.276c0.165,0.439,0.257,0.924,0.245,1.438c-0.079,0.423-0.06,1.435,0.004,4.477
	c0.057,2.826,0.251,4.548,0.255,4.571c0.044,0.925-0.215,1.785-0.729,2.421c-0.52,0.643-1.25,1.003-2.113,1.045l-0.159,0.004
	c-1.887,0-2.806-1.6-2.883-3.232c-0.002-0.018-0.201-1.855-0.224-4.743c-0.037-3.695,0.004-4.467,0.016-4.607
	c0.007-0.036,0.012-0.073,0.015-0.112c0.09-1.627,1.047-3.255,3.034-3.159c0.858,0.047,1.579,0.412,2.083,1.055
	C66.572,55.412,66.683,55.604,66.78,55.806z M66.916,117.141c-0.46-3.661-0.509-4.433-0.513-4.573
	c0.003-0.038,0.004-0.076,0.001-0.114c-0.1-1.646,0.674-3.356,2.621-3.489c0.053,0.006,0.106,0.028,0.16,0.016
	c0.012-0.003,0.021-0.011,0.032-0.015c1.614-0.024,2.823,1.206,2.989,2.992c-0.029,0.45,0.112,1.48,0.518,4.439
	c0.384,2.805,0.775,4.49,0.781,4.514c0.15,0.913-0.007,1.797-0.445,2.488c-0.031,0.049-0.073,0.087-0.106,0.134
	c-0.103,0.075-0.178,0.179-0.234,0.297c-0.423,0.447-0.978,0.741-1.636,0.849c-1.718,0.287-3.068-0.874-3.396-2.854
	C67.685,121.807,67.276,120,66.916,117.141z M83.807,71.555c-1.959,0-2.658-1.715-2.658-3.324l-0.036-9.588
	c0-1.533,0.727-3.323,2.774-3.323c2.139,0,2.459,2.082,2.459,3.323v9.591C86.346,69.232,86.099,71.555,83.807,71.555z
	 M83.887,109.429c2.139,0,2.459,2.081,2.459,3.322v9.591c0,0.999-0.247,3.32-2.539,3.32c-1.959,0-2.658-1.715-2.658-3.323
	l-0.036-9.588C81.113,111.219,81.839,109.429,83.887,109.429z M106.084,57.345c0.002,0.037,0.007,0.072,0.014,0.106
	c0.011,0.137,0.052,0.901,0.018,4.613c-0.025,2.88-0.222,4.725-0.228,4.789c-0.077,1.586-0.999,3.186-2.884,3.186l-0.16-0.004
	c-1.735-0.083-2.929-1.541-2.844-3.417c0.009-0.072,0.201-1.794,0.259-4.619c0.063-3.038,0.082-4.052,0.004-4.476
	c-0.021-0.873,0.226-1.679,0.7-2.282c0.505-0.643,1.226-1.007,2.084-1.055C104.981,54.08,105.993,55.718,106.084,57.345z
	 M94.34,123.397c-0.437-0.69-0.596-1.574-0.454-2.439c0.017-0.071,0.406-1.757,0.79-4.561c0.405-2.946,0.549-3.982,0.521-4.436
	c0.17-1.852,1.445-3.132,3.152-3.002c1.969,0.118,2.75,1.84,2.65,3.493c-0.002,0.035-0.001,0.07,0.001,0.105
	c-0.005,0.136-0.055,0.897-0.516,4.583c-0.357,2.857-0.77,4.663-0.783,4.729c-0.316,1.928-1.652,3.094-3.386,2.808
	C95.466,124.538,94.781,124.096,94.34,123.397z M112.44,51.114c-0.653,0.61-2.301,1.616-6.397,2.602
	c-0.806-0.715-1.866-1.083-3.079-1.015c-1.284,0.071-2.415,0.629-3.185,1.608c-0.146,0.185-0.264,0.389-0.38,0.595
	c-3.593,0.474-7.552,0.778-11.778,0.905c-0.125,0.003-0.235,0.044-0.337,0.1c-0.651-1.329-1.831-2.095-3.397-2.095
	c-1.607,0-2.898,0.812-3.628,2.136c-0.111-0.068-0.235-0.118-0.376-0.122c-4.218-0.103-8.194-0.393-11.842-0.85
	c-0.124-0.23-0.26-0.454-0.42-0.658c-0.77-0.979-1.901-1.547-3.185-1.618c-1.277-0.069-2.392,0.327-3.208,1.116
	c-4.152-0.957-5.938-1.949-6.692-2.58c-0.282-3.83-0.486-6.902-0.615-8.923c4.457,3.065,17.178,4.654,29.779,4.654
	c12.202,0,24.52-1.49,29.334-4.367C112.905,44.599,112.707,47.519,112.44,51.114z M83.67,149.49v-11.151
	c0-0.416-0.338-0.753-0.753-0.753c-0.416,0-0.753,0.337-0.753,0.753v11.106c-3.564-0.402-13.86-3.655-18.97-27.214
	c-0.032-0.146-0.062-0.296-0.094-0.443c0.891,0.554,2.011,1.067,3.372,1.527c0.03,0.01,0.061,0.009,0.091,0.015
	c0.703,1.768,2.197,2.896,4.01,2.896c0.246,0,0.499-0.021,0.757-0.062c0.93-0.152,1.747-0.571,2.383-1.198
	c2.029,0.302,4.175,0.607,6.396,0.607c0.011,0,0.022,0,0.033,0c0.14,0,0.265-0.054,0.378-0.126c0.73,1.076,1.869,1.721,3.288,1.721
	c1.43,0,2.552-0.656,3.251-1.77c0.125,0.102,0.272,0.175,0.437,0.175c0.015,0,0.029,0,0.044,0c2.141,0,4.187-0.351,6.097-0.655
	c0.643,0.656,1.483,1.089,2.438,1.246c0.26,0.042,0.513,0.062,0.758,0.062c1.896,0,3.452-1.232,4.102-3.112
	c1.16-0.426,2.128-0.893,2.909-1.393c-0.034,0.162-0.068,0.327-0.104,0.488C97.735,149.871,84.666,149.562,83.67,149.49z
	 M113.362,39.242c-0.075,0.111-0.134,0.236-0.142,0.38c-0.003,0.042-0.024,0.427-0.066,1.106
	c-2.347,2.204-13.123,4.735-29.453,4.735c-18.193,0-29.492-3.141-29.923-5.471c-0.004-0.069-0.008-0.131-0.011-0.18
	c0.034-0.539,0.729-1.182,2.128-1.838h17.147c0.416,0,0.753-0.337,0.753-0.753s-0.337-0.753-0.753-0.753h-12.6
	c3.467-0.852,8.335-1.589,14.726-1.974c0.317,0.612,0.726,1.179,1.227,1.679c1.276,1.276,2.973,1.979,4.777,1.979
	c1.805,0,3.501-0.703,4.779-1.979c0.557-0.556,0.996-1.196,1.325-1.886c1.616,0.04,3.18,0.104,4.659,0.189
	c1.122,2.18,3.39,3.677,6.006,3.677c2.096,0,3.97-0.958,5.211-2.458C109.812,36.842,112.555,38.269,113.362,39.242z"/>
</svg>
