<?xml version="1.0" encoding="utf-8"?>
<!-- Generator: Adobe Illustrator 16.0.0, SVG Export Plug-In . SVG Version: 6.00 Build 0)  -->
<!DOCTYPE svg PUBLIC "-//W3C//DTD SVG 1.1//EN" "http://www.w3.org/Graphics/SVG/1.1/DTD/svg11.dtd">
<svg version="1.1" id="Layer_1" xmlns="http://www.w3.org/2000/svg" xmlns:xlink="http://www.w3.org/1999/xlink" x="0px" y="0px"
	 width="164px" height="170px" viewBox="0 0 164 170" enable-background="new 0 0 164 170" xml:space="preserve">
<g>
	<path fill="#FFFFFF" d="M92.892,83.061c0-7.185-5.846-13.03-13.03-13.03s-13.029,5.846-13.029,13.03S72.677,96.09,79.861,96.09
		S92.892,90.245,92.892,83.061z M68.327,83.061c0-6.36,5.174-11.535,11.534-11.535c6.36,0,11.535,5.175,11.535,11.535
		c0,6.359-5.175,11.534-11.535,11.534C73.501,94.595,68.327,89.42,68.327,83.061z"/>
	<path fill="#FFFFFF" d="M108.083,83.061c0-15.562-12.66-28.222-28.222-28.222c-15.561,0-28.221,12.66-28.221,28.222
		c0,15.561,12.66,28.222,28.221,28.222C95.423,111.282,108.083,98.621,108.083,83.061z M53.136,83.061
		c0-14.737,11.989-26.726,26.726-26.726c14.737,0,26.726,11.988,26.726,26.726s-11.988,26.727-26.726,26.727
		C65.125,109.787,53.136,97.798,53.136,83.061z"/>
	<path fill="#FFFFFF" d="M79.114,125.402c0,0.413,0.335,0.748,0.748,0.748c23.76,0,43.09-19.33,43.09-43.09
		c0-0.413-0.335-0.748-0.748-0.748c-0.412,0-0.747,0.335-0.747,0.748c0,22.935-18.659,41.594-41.595,41.594
		C79.449,124.654,79.114,124.989,79.114,125.402z"/>
	<path fill="#FFFFFF" d="M137.718,82.312c-0.413,0-0.748,0.335-0.748,0.748c0,31.49-25.619,57.109-57.108,57.109
		c-0.413,0-0.748,0.335-0.748,0.747c0,0.413,0.335,0.748,0.748,0.748c32.314,0,58.604-26.29,58.604-58.604
		C138.466,82.647,138.131,82.312,137.718,82.312z"/>
	<path fill="#FFFFFF" d="M163.939,12.304c-0.201-0.469-1.574-2.744-8.901-1.41c-6.672,1.21-11.313-2.398-11.359-2.436
		c-0.225-0.179-0.532-0.214-0.79-0.088c-0.259,0.125-0.424,0.386-0.424,0.673v27.665c-1.966-3.451-5.671-5.787-9.918-5.787
		c-0.004,0-0.008,0-0.012,0C118.506,16.748,99.809,8.941,79.861,8.941c-40.869,0-74.119,33.25-74.119,74.119
		c0,10.468,2.149,20.572,6.36,30.049C5.172,114.771,0,120.986,0,128.4c0,7.334,4.633,15.162,13.77,23.268
		c6.739,5.979,13.575,9.899,13.644,9.938c0.115,0.065,0.243,0.099,0.371,0.099c0.127,0,0.255-0.032,0.369-0.098
		c0.069-0.039,6.925-3.961,13.684-9.938c1.177-1.042,2.278-2.079,3.306-3.11c10.62,5.639,22.616,8.622,34.719,8.622
		c40.869,0,74.118-33.251,74.118-74.12c0-13.363-3.595-26.451-10.395-37.87c0.236-0.915,0.376-1.868,0.376-2.856V17.193
		c1.548,1.134,4.796,2.652,9.031-0.089c3.606-2.334,10.345-3.76,10.413-3.774c0.219-0.046,0.407-0.188,0.51-0.386
		C164.019,12.745,164.028,12.511,163.939,12.304z M142.465,42.334c0,5.47-4.449,9.919-9.918,9.919c-5.47,0-9.92-4.449-9.92-9.919
		c0-5.469,4.45-9.918,9.92-9.918C138.016,32.416,142.465,36.865,142.465,42.334z M27.784,160.09
		c-3.222-1.924-26.289-16.245-26.289-31.689c0-7.855,6.41-14.245,14.288-14.245c4.348,0,8.298,1.986,11.425,5.743
		c0.284,0.343,0.866,0.343,1.15,0c2.179-2.62,5.937-5.743,11.463-5.743c7.901,0,14.329,6.39,14.329,14.245
		C54.15,143.839,31.011,158.168,27.784,160.09z M152.484,83.061c0,40.045-32.578,72.624-72.623,72.624
		c-11.715,0-23.324-2.855-33.634-8.249c6.249-6.6,9.418-12.985,9.418-19.035c0-8.68-7.099-15.74-15.824-15.74
		c-4.566,0-8.711,1.939-12.038,5.619c-3.327-3.68-7.459-5.619-12-5.619c-0.741,0-1.463,0.068-2.178,0.167
		c-4.221-9.378-6.368-19.39-6.368-29.767c0-40.045,32.579-72.623,72.624-72.623c19.126,0,37.069,7.339,50.711,20.666
		c-5.354,0.939-9.44,5.611-9.44,11.23c0,6.294,5.121,11.414,11.415,11.414c4.612,0,8.583-2.754,10.383-6.7
		C149.179,57.976,152.484,70.391,152.484,83.061z M152.181,15.85c-4.852,3.138-7.946-0.354-8.074-0.502
		c-0.044-0.052-0.093-0.097-0.146-0.133v-4.783c1.93,1.121,6.021,2.9,11.344,1.933c3.271-0.595,5.112-0.409,6.123-0.104
		C159.107,12.852,154.903,14.087,152.181,15.85z"/>
</g>
</svg>
