<?xml version="1.0" encoding="utf-8"?>
<!-- Generator: Adobe Illustrator 16.0.0, SVG Export Plug-In . SVG Version: 6.00 Build 0)  -->
<!DOCTYPE svg PUBLIC "-//W3C//DTD SVG 1.1//EN" "http://www.w3.org/Graphics/SVG/1.1/DTD/svg11.dtd">
<svg version="1.1" id="Layer_1" xmlns="http://www.w3.org/2000/svg" xmlns:xlink="http://www.w3.org/1999/xlink" x="0px" y="0px"
	 width="164px" height="170px" viewBox="0 0 164 170" enable-background="new 0 0 164 170" xml:space="preserve">
<g>
	<path fill="#FFFFFF" d="M140.172,79.75c0-3.128-2.544-5.672-5.671-5.672c-3.128,0-5.673,2.544-5.673,5.672
		c0,25.82-21.008,46.828-46.828,46.828c-25.821,0-46.828-21.008-46.828-46.828c0-3.128-2.544-5.672-5.672-5.672
		s-5.672,2.544-5.672,5.672c0,29.727,23.005,55.021,52.5,57.891v20.766H50.5c-3.127,0-5.672,2.544-5.672,5.672
		s2.544,5.672,5.672,5.672h63.001c3.127,0,5.671-2.544,5.671-5.672s-2.544-5.672-5.671-5.672H87.672v-20.766
		C117.167,134.771,140.172,109.477,140.172,79.75z M113.501,159.906c2.3,0,4.171,1.871,4.171,4.172s-1.871,4.172-4.171,4.172H50.5
		c-2.3,0-4.172-1.871-4.172-4.172s1.872-4.172,4.172-4.172h27.328v-23.639l-0.687-0.059c-29.054-2.477-51.813-27.275-51.813-56.459
		c0-2.301,1.872-4.172,4.172-4.172s4.172,1.872,4.172,4.172c0,26.648,21.68,48.328,48.328,48.328
		c26.648,0,48.328-21.68,48.328-48.328c0-2.301,1.872-4.172,4.173-4.172c2.3,0,4.171,1.872,4.171,4.172
		c0,29.184-22.759,53.984-51.812,56.459l-0.688,0.059v23.639H113.501z"/>
	<path fill="#FFFFFF" d="M44.959,84.735c1.54,18.048,16.946,32.186,35.073,32.186h3.938c18.127,0,33.532-14.138,35.071-32.186
		l0.069-0.814V33.578l-0.067-0.812C117.52,14.532,102.111,0.25,83.969,0.25h-3.938c-18.143,0-33.55,14.282-35.076,32.515
		l-0.068,0.812l0.002,50.344L44.959,84.735z M80.031,1.75h3.938c17.079,0,31.623,13.224,33.496,30.266H96.444
		c-0.414,0-0.75,0.336-0.75,0.75s0.336,0.75,0.75,0.75h21.028l-0.001,8.4H96.444c-0.414,0-0.75,0.336-0.75,0.75
		s0.336,0.75,0.75,0.75h21.027l-0.001,8.4H96.444c-0.414,0-0.75,0.336-0.75,0.75s0.336,0.75,0.75,0.75h21.026l-0.001,8.4H96.444
		c-0.414,0-0.75,0.336-0.75,0.75s0.336,0.75,0.75,0.75h21.024v8.4H96.444c-0.414,0-0.75,0.336-0.75,0.75s0.336,0.75,0.75,0.75
		h21.023l-0.001,12.304c-1.859,16.889-16.416,30-33.498,30h-3.938c-17.081,0-31.639-13.111-33.499-30l-0.001-12.304h21.597
		c0.414,0,0.75-0.336,0.75-0.75s-0.336-0.75-0.75-0.75H46.531l-0.001-8.4h21.598c0.414,0,0.75-0.336,0.75-0.75
		s-0.336-0.75-0.75-0.75H46.53l0-8.4h21.598c0.414,0,0.75-0.336,0.75-0.75s-0.336-0.75-0.75-0.75H46.529l0-8.4h21.599
		c0.414,0,0.75-0.336,0.75-0.75s-0.336-0.75-0.75-0.75H46.529l-0.001-8.4h21.6c0.414,0,0.75-0.336,0.75-0.75s-0.336-0.75-0.75-0.75
		H46.536C48.41,14.974,62.954,1.75,80.031,1.75z"/>
	<path fill="#FFFFFF" d="M82,104.5c5.514,0,10-4.486,10-10s-4.486-10-10-10c-5.514,0-10,4.486-10,10S76.486,104.5,82,104.5z M82,86
		c4.687,0,8.5,3.813,8.5,8.5S86.687,103,82,103c-4.687,0-8.5-3.813-8.5-8.5S77.313,86,82,86z"/>
</g>
</svg>
