<?xml version="1.0" encoding="utf-8"?>
<!-- Generator: Adobe Illustrator 16.0.0, SVG Export Plug-In . SVG Version: 6.00 Build 0)  -->
<!DOCTYPE svg PUBLIC "-//W3C//DTD SVG 1.1//EN" "http://www.w3.org/Graphics/SVG/1.1/DTD/svg11.dtd">
<svg version="1.1" id="Layer_1" xmlns="http://www.w3.org/2000/svg" xmlns:xlink="http://www.w3.org/1999/xlink" x="0px" y="0px"
	 width="164px" height="170px" viewBox="0 0 164 170" enable-background="new 0 0 164 170" xml:space="preserve">
<g>
	<g>
		<path fill="#FFFFFF" d="M91.026,117.894H59c-0.415,0-0.752-0.337-0.752-0.752v-11.206c0-0.415,0.337-0.752,0.752-0.752h32.277
			c0.415,0,0.752,0.337,0.752,0.752s-0.337,0.752-0.752,0.752H59.753v9.702h31.273c0.415,0,0.752,0.337,0.752,0.752
			S91.441,117.894,91.026,117.894z"/>
		<path fill="#FFFFFF" d="M105.504,117.894h-2.692c-0.416,0-0.753-0.337-0.753-0.752s0.337-0.752,0.753-0.752h2.692
			c2.675,0,4.851-2.176,4.851-4.851s-2.176-4.852-4.851-4.852h-2.692c-0.416,0-0.753-0.337-0.753-0.752s0.337-0.752,0.753-0.752
			h2.692c3.504,0,6.355,2.851,6.355,6.355C111.859,115.042,109.008,117.894,105.504,117.894z"/>
		<path fill="#FFFFFF" d="M58.552,111.782h-5.627c-0.416,0-0.752-0.337-0.752-0.753c0-0.415,0.337-0.752,0.752-0.752h5.627
			c0.415,0,0.752,0.337,0.752,0.752C59.304,111.445,58.967,111.782,58.552,111.782z"/>
		<path fill="#FFFFFF" d="M51.125,116.058h-3.151c-1.16,0-2.103-0.944-2.103-2.104v-5.625c0-1.159,0.943-2.104,2.103-2.104h3.151
			c1.16,0,2.103,0.944,2.103,2.104v5.625C53.228,115.113,52.285,116.058,51.125,116.058z M47.974,107.729
			c-0.324,0-0.599,0.274-0.599,0.6v5.625c0,0.33,0.269,0.6,0.599,0.6h3.151c0.33,0,0.599-0.27,0.599-0.6v-5.625
			c0-0.325-0.274-0.6-0.599-0.6H47.974z"/>
	</g>
	<g>
		<path fill="#FFFFFF" d="M91.026,98.314H59c-0.415,0-0.752-0.337-0.752-0.752V86.355c0-0.415,0.337-0.752,0.752-0.752h32.026
			c0.415,0,0.752,0.337,0.752,0.752s-0.337,0.752-0.752,0.752H59.753v9.703h31.273c0.415,0,0.752,0.337,0.752,0.752
			S91.441,98.314,91.026,98.314z"/>
		<path fill="#FFFFFF" d="M105.504,98.314h-2.721c-0.416,0-0.753-0.337-0.753-0.752s0.337-0.752,0.753-0.752h2.721
			c2.675,0,4.851-2.177,4.851-4.852s-2.176-4.852-4.851-4.852h-2.692c-0.416,0-0.753-0.337-0.753-0.752s0.337-0.752,0.753-0.752
			h2.692c3.504,0,6.355,2.851,6.355,6.355S109.008,98.314,105.504,98.314z"/>
		<path fill="#FFFFFF" d="M58.552,92.202h-5.627c-0.416,0-0.752-0.337-0.752-0.753c0-0.415,0.337-0.752,0.752-0.752h5.627
			c0.415,0,0.752,0.337,0.752,0.752C59.304,91.865,58.967,92.202,58.552,92.202z"/>
		<path fill="#FFFFFF" d="M51.125,96.478h-3.151c-1.16,0-2.103-0.943-2.103-2.104v-5.626c0-1.159,0.943-2.103,2.103-2.103h3.151
			c1.16,0,2.103,0.943,2.103,2.103v5.626C53.228,95.534,52.285,96.478,51.125,96.478z M47.974,88.149
			c-0.324,0-0.599,0.274-0.599,0.599v5.626c0,0.33,0.269,0.599,0.599,0.599h3.151c0.33,0,0.599-0.269,0.599-0.599v-5.626
			c0-0.324-0.274-0.599-0.599-0.599H47.974z"/>
	</g>
	<g>
		<path fill="#FFFFFF" d="M105.504,79.635h-2.692c-0.416,0-0.753-0.337-0.753-0.752c0-0.415,0.337-0.752,0.753-0.752h2.692
			c2.675,0,4.851-2.176,4.851-4.852c0-2.674-2.176-4.85-4.851-4.85h-2.442c-0.415,0-0.752-0.337-0.752-0.752
			c0-0.416,0.337-0.752,0.752-0.752h2.442c3.504,0,6.355,2.851,6.355,6.354C111.859,76.784,109.008,79.635,105.504,79.635z"/>
		<path fill="#FFFFFF" d="M90.775,79.635H59c-0.415,0-0.752-0.337-0.752-0.752V67.677c0-0.416,0.337-0.752,0.752-0.752h32.026
			c0.415,0,0.752,0.337,0.752,0.752c0,0.415-0.337,0.752-0.752,0.752H59.753v9.702h31.022c0.416,0,0.753,0.337,0.753,0.752
			C91.528,79.298,91.191,79.635,90.775,79.635z"/>
		<path fill="#FFFFFF" d="M58.552,73.523h-5.627c-0.416,0-0.752-0.337-0.752-0.752c0-0.415,0.337-0.752,0.752-0.752h5.627
			c0.415,0,0.752,0.337,0.752,0.752C59.304,73.186,58.967,73.523,58.552,73.523z"/>
		<path fill="#FFFFFF" d="M51.125,77.798h-3.151c-1.16,0-2.103-0.943-2.103-2.103v-5.626c0-1.159,0.943-2.102,2.103-2.102h3.151
			c1.16,0,2.103,0.943,2.103,2.102v5.626C53.228,76.855,52.285,77.798,51.125,77.798z M47.974,69.472
			c-0.33,0-0.599,0.268-0.599,0.598v5.626c0,0.324,0.274,0.599,0.599,0.599h3.151c0.324,0,0.599-0.274,0.599-0.599v-5.626
			c0-0.33-0.269-0.598-0.599-0.598H47.974z"/>
	</g>
	<path fill="#FFFFFF" d="M119.99,61.144h-17.329c-0.415,0-0.752-0.337-0.752-0.752c0-0.416,0.337-0.752,0.752-0.752h17.329
		c0.416,0,0.753,0.337,0.753,0.752C120.743,60.807,120.406,61.144,119.99,61.144z"/>
	<path fill="#FFFFFF" d="M100.227,12.308H35.333c-2.627,0-4.764-2.137-4.764-4.764V4.764C30.568,2.137,32.706,0,35.333,0h64.894
		c2.627,0,4.764,2.137,4.764,4.764v2.779C104.99,10.17,102.854,12.308,100.227,12.308z M35.333,1.504c-1.797,0-3.26,1.462-3.26,3.26
		v2.779c0,1.797,1.462,3.26,3.26,3.26h64.894c1.797,0,3.26-1.462,3.26-3.26V4.764c0-1.797-1.463-3.26-3.26-3.26H35.333z"/>
	<path fill="#FFFFFF" d="M74.128,68.2c-0.416,0-0.752-0.337-0.752-0.752V45.764c-0.037-0.379-0.89-10.948,6.699-18.536
		c7.32-7.321,14.295-15.408,14.364-15.489c0.271-0.316,0.747-0.351,1.062-0.08c0.315,0.271,0.351,0.746,0.079,1.061
		c-0.069,0.081-7.08,8.209-14.441,15.571c-7.097,7.096-6.271,17.303-6.262,17.405l0.003,21.751
		C74.88,67.863,74.543,68.2,74.128,68.2z"/>
	<path fill="#FFFFFF" d="M74.128,86.923c-0.416,0-0.752-0.337-0.752-0.752v-7.355c0-0.416,0.337-0.752,0.752-0.752
		c0.415,0,0.752,0.337,0.752,0.752v7.355C74.88,86.586,74.543,86.923,74.128,86.923z"/>
	<path fill="#FFFFFF" d="M74.161,106.813c-0.397,0-0.729-0.311-0.751-0.712c-0.022-0.427-0.034-0.854-0.034-1.286v-7.278
		c0-0.415,0.337-0.753,0.752-0.753c0.415,0,0.752,0.338,0.752,0.753v7.278c0,0.404,0.011,0.807,0.032,1.205
		c0.022,0.416-0.296,0.77-0.711,0.792C74.188,106.813,74.174,106.813,74.161,106.813z"/>
	<path fill="#FFFFFF" d="M90.898,127.692c-0.066,0-0.136-0.009-0.203-0.028c-5.619-1.57-10.451-5.157-13.608-10.102
		c-0.223-0.35-0.121-0.814,0.229-1.038c0.349-0.225,0.814-0.122,1.039,0.229c2.957,4.631,7.483,7.991,12.745,9.461
		c0.4,0.112,0.634,0.527,0.522,0.928C91.53,127.475,91.228,127.692,90.898,127.692z"/>
	<path fill="#FFFFFF" d="M109.427,170H84.492c-0.253,0-0.49-0.128-0.629-0.34c-0.139-0.213-0.162-0.48-0.061-0.713l6.661-15.262
		V58.87c0-11.846,9.639-21.483,21.484-21.483s21.483,9.637,21.483,21.483v45.946c0,17.76-12.578,32.831-29.977,36.012v12.858
		l6.661,15.262c0.102,0.232,0.078,0.5-0.061,0.713C109.917,169.872,109.68,170,109.427,170z M85.642,168.495h22.636l-6.265-14.353
		c-0.041-0.095-0.062-0.196-0.062-0.301V58.029c0-5.205,4.233-9.438,9.437-9.438c5.205,0,9.439,4.233,9.439,9.438v46.786
		c0,10.682-7.122,20.023-17.371,22.864v11.617c16.541-3.156,28.472-17.543,28.472-34.481V58.87c0-11.017-8.963-19.979-19.979-19.979
		c-11.017,0-19.979,8.962-19.979,19.979v94.972c0,0.104-0.021,0.206-0.062,0.301L85.642,168.495z M111.387,50.096
		c-4.374,0-7.932,3.559-7.932,7.934v68.085c9.382-2.791,15.866-11.436,15.866-21.299V58.029
		C119.321,53.654,115.763,50.096,111.387,50.096z"/>
	<path fill="#FFFFFF" d="M91.224,140.993c-0.039,0-0.078-0.003-0.118-0.009c-13.111-2.056-24.098-11.089-28.673-23.575
		c-0.143-0.391,0.057-0.822,0.448-0.965c0.388-0.143,0.821,0.057,0.965,0.447c4.387,11.974,14.922,20.636,27.494,22.605
		c0.41,0.064,0.69,0.449,0.627,0.86C91.907,140.729,91.588,140.993,91.224,140.993z"/>
	<path fill="#FFFFFF" d="M60.975,106.647c-0.405,0-0.739-0.322-0.751-0.729c-0.011-0.366-0.017-0.733-0.017-1.103v-7.278
		c0-0.415,0.337-0.753,0.752-0.753c0.416,0,0.752,0.338,0.752,0.753v7.278c0,0.354,0.005,0.707,0.016,1.058
		c0.013,0.415-0.314,0.762-0.729,0.774C60.99,106.647,60.983,106.647,60.975,106.647z"/>
	<path fill="#FFFFFF" d="M60.959,86.923c-0.415,0-0.752-0.337-0.752-0.752v-7.355c0-0.416,0.337-0.752,0.752-0.752
		c0.416,0,0.752,0.337,0.752,0.752v7.355C61.712,86.586,61.375,86.923,60.959,86.923z"/>
	<path fill="#FFFFFF" d="M60.959,68.368c-0.415,0-0.752-0.337-0.752-0.752V45.764c0.012-0.169,0.821-10.393-6.26-17.473
		c-7.361-7.362-14.37-15.49-14.44-15.571c-0.271-0.315-0.235-0.79,0.08-1.061c0.314-0.272,0.789-0.236,1.061,0.08
		c0.069,0.081,7.043,8.168,14.363,15.489c7.59,7.587,6.738,18.157,6.698,18.603l0.003,21.785
		C61.712,68.031,61.375,68.368,60.959,68.368z"/>
</g>
</svg>
