<?xml version="1.0" encoding="utf-8"?>
<!-- Generator: Adobe Illustrator 16.0.0, SVG Export Plug-In . SVG Version: 6.00 Build 0)  -->
<!DOCTYPE svg PUBLIC "-//W3C//DTD SVG 1.1//EN" "http://www.w3.org/Graphics/SVG/1.1/DTD/svg11.dtd">
<svg version="1.1" id="Layer_1" xmlns="http://www.w3.org/2000/svg" xmlns:xlink="http://www.w3.org/1999/xlink" x="0px" y="0px"
	 width="330px" height="85px" viewBox="0 0 330 85" enable-background="new 0 0 330 85" xml:space="preserve">
<g>
	<g>
		<g>
			<linearGradient id="SVGID_1_" gradientUnits="userSpaceOnUse" x1="134.1445" y1="16.9482" x2="134.1445" y2="56.9155">
				<stop  offset="0" style="stop-color:#009EDB"/>
				<stop  offset="1" style="stop-color:#005E9E"/>
			</linearGradient>
			<path fill="url(#SVGID_1_)" d="M147.31,16.948c-0.542,0-0.999,0.19-1.371,0.563c-0.379,0.377-0.568,0.836-0.568,1.378v13.446
				c-1.372-1.501-3.021-2.803-4.938-3.91c-1.918-1.103-4.045-1.697-6.382-1.781c-2,0-3.909,0.407-5.724,1.218
				c-1.811,0.815-3.407,1.908-4.785,3.286c-1.374,1.374-2.469,2.983-3.284,4.815c-0.812,1.837-1.219,3.796-1.219,5.879
				c0,2.044,0.397,3.973,1.193,5.785c0.786,1.812,1.863,3.406,3.218,4.782c1.355,1.379,2.948,2.466,4.784,3.253
				c1.836,0.793,3.818,1.19,5.944,1.19c2.042,0,3.983-0.374,5.815-1.125c1.837-0.751,3.442-1.795,4.816-3.127l0.562-0.563v2.939
				c0,0.543,0.189,0.999,0.568,1.377c0.372,0.374,0.83,0.562,1.371,0.562c0.544,0,1.001-0.188,1.378-0.562
				c0.372-0.378,0.561-0.834,0.561-1.377V18.889c0-0.542-0.189-1.001-0.561-1.378C148.312,17.139,147.854,16.948,147.31,16.948z
				 M144.498,46.188c-0.585,1.357-1.389,2.545-2.409,3.565c-1.022,1.022-2.208,1.825-3.565,2.409
				c-1.354,0.583-2.803,0.875-4.345,0.875c-1.544,0-3.001-0.292-4.38-0.875c-1.375-0.584-2.576-1.387-3.594-2.409
				c-1.022-1.021-1.825-2.208-2.406-3.565c-0.586-1.354-0.88-2.801-0.88-4.346c0-1.543,0.294-3.002,0.88-4.379
				c0.581-1.374,1.384-2.573,2.406-3.596c1.019-1.017,2.219-1.826,3.594-2.408c1.378-0.583,2.836-0.875,4.38-0.875
				c1.499,0,2.917,0.282,4.254,0.845c1.332,0.565,2.5,1.345,3.502,2.347c0.996,1.001,1.8,2.188,2.406,3.567
				c0.603,1.371,0.949,2.874,1.03,4.5C145.371,43.387,145.08,44.834,144.498,46.188z"/>
			<linearGradient id="SVGID_2_" gradientUnits="userSpaceOnUse" x1="166.8584" y1="26.6436" x2="166.8584" y2="56.979">
				<stop  offset="0" style="stop-color:#009EDB"/>
				<stop  offset="1" style="stop-color:#005E9E"/>
			</linearGradient>
			<path fill="url(#SVGID_2_)" d="M177.456,31.147c-1.372-1.378-2.966-2.471-4.782-3.286c-1.816-0.811-3.726-1.218-5.726-1.218
				c-2.164,0-4.177,0.396-6.035,1.187c-1.854,0.795-3.459,1.878-4.812,3.253c-1.357,1.377-2.421,2.992-3.193,4.849
				c-0.772,1.856-1.154,3.827-1.154,5.91c0,2.167,0.393,4.17,1.185,6.003c0.794,1.836,1.876,3.421,3.255,4.756
				c1.375,1.332,2.969,2.376,4.785,3.127c1.814,0.751,3.76,1.125,5.847,1.125c2.254,0,4.344-0.555,6.283-1.657
				c1.939-1.104,3.599-2.43,4.975-3.974v3.818c0,0.542,0.191,0.999,0.565,1.374c0.374,0.377,0.829,0.564,1.373,0.564
				c0.543,0,0.996-0.188,1.376-0.564c0.379-0.375,0.564-0.832,0.564-1.374V41.842c0-2.083-0.407-4.042-1.22-5.879
				C179.932,34.13,178.834,32.521,177.456,31.147z M177.053,46.314c-0.603,1.354-1.422,2.535-2.438,3.531
				c-1.022,1.004-2.202,1.784-3.534,2.349c-1.334,0.561-2.754,0.843-4.254,0.843c-1.545,0-2.989-0.292-4.347-0.875
				c-1.356-0.584-2.544-1.387-3.565-2.409c-1.025-1.021-1.825-2.208-2.409-3.565c-0.582-1.354-0.875-2.801-0.875-4.346
				c0-1.543,0.293-3.002,0.875-4.379c0.584-1.374,1.384-2.573,2.409-3.596c1.021-1.017,2.209-1.826,3.565-2.408
				c1.357-0.583,2.802-0.875,4.347-0.875c1.543,0,3.004,0.292,4.375,0.875c1.379,0.583,2.582,1.391,3.601,2.408
				c1.021,1.023,1.821,2.223,2.405,3.596c0.585,1.377,0.877,2.836,0.877,4.379C178.004,43.469,177.658,44.958,177.053,46.314z"/>
			<linearGradient id="SVGID_3_" gradientUnits="userSpaceOnUse" x1="194.252" y1="26.5791" x2="194.252" y2="68.2349">
				<stop  offset="0" style="stop-color:#009EDB"/>
				<stop  offset="1" style="stop-color:#005E9E"/>
			</linearGradient>
			<path fill="url(#SVGID_3_)" d="M204.291,26.579c-0.373,0-0.726,0.107-1.062,0.316c-0.334,0.206-0.564,0.478-0.688,0.811
				l-8.447,22.201l-8.129-22.201c-0.127-0.333-0.353-0.604-0.688-0.811c-0.338-0.209-0.729-0.316-1.188-0.316
				c-0.584,0-1.029,0.18-1.341,0.533c-0.314,0.354-0.473,0.805-0.473,1.343c0,0.336,0.059,0.628,0.188,0.88
				c0,0.042,0.163,0.519,0.497,1.436c0.334,0.918,0.879,2.386,1.628,4.41c0.753,2.025,1.731,4.691,2.94,8.005
				c1.206,3.316,2.687,7.37,4.441,12.163l-3.751,10.26c-0.042,0.126-0.077,0.24-0.097,0.346c-0.023,0.103-0.031,0.217-0.031,0.341
				c0,0.503,0.178,0.949,0.532,1.348c0.354,0.395,0.823,0.592,1.407,0.592c0.835,0,1.416-0.414,1.752-1.253l14.262-37.772
				c0.123-0.251,0.184-0.501,0.184-0.754c0-0.455-0.176-0.886-0.535-1.282C205.343,26.78,204.877,26.579,204.291,26.579z"/>
			<linearGradient id="SVGID_4_" gradientUnits="userSpaceOnUse" x1="218.5186" y1="27.4707" x2="218.5186" y2="57.8071">
				<stop  offset="0" style="stop-color:#009EDB"/>
				<stop  offset="1" style="stop-color:#005E9E"/>
			</linearGradient>
			<path fill="url(#SVGID_4_)" d="M226.117,27.815c-0.165-0.224-0.414-0.345-0.75-0.345c-2.874,0-5.317,0.657-7.318,1.972
				c-1.999,1.313-3.797,3.264-5.376,5.849v-6.82c0-0.289-0.106-0.529-0.313-0.717c-0.208-0.19-0.439-0.284-0.687-0.284
				c-0.336,0-0.588,0.121-0.751,0.345c-0.17,0.228-0.252,0.449-0.252,0.656v28.335c0,0.664,0.333,1,1.003,1
				c0.247,0,0.479-0.085,0.687-0.252c0.207-0.166,0.313-0.396,0.313-0.688V42.109c0.038-1.668,0.408-3.264,1.097-4.787
				c0.687-1.521,1.592-2.863,2.715-4.033c1.132-1.169,2.452-2.097,3.979-2.785c1.515-0.686,3.156-1.034,4.903-1.034
				c0.336,0,0.585-0.112,0.75-0.344c0.171-0.227,0.25-0.447,0.25-0.656C226.367,28.265,226.288,28.043,226.117,27.815z"/>
			<linearGradient id="SVGID_5_" gradientUnits="userSpaceOnUse" x1="241.4746" y1="27.4707" x2="241.4746" y2="57.8071">
				<stop  offset="0" style="stop-color:#009EDB"/>
				<stop  offset="1" style="stop-color:#005E9E"/>
			</linearGradient>
			<path fill="url(#SVGID_5_)" d="M252.137,31.88c-1.371-1.351-2.988-2.428-4.845-3.223c-1.856-0.789-3.806-1.187-5.849-1.187
				c-2.086,0-4.043,0.397-5.883,1.187c-1.833,0.795-3.436,1.878-4.814,3.256c-1.368,1.376-2.457,2.99-3.248,4.847
				c-0.795,1.856-1.189,3.828-1.189,5.91c0,2.086,0.395,4.045,1.189,5.881c0.791,1.833,1.88,3.438,3.248,4.814
				c1.379,1.377,2.981,2.463,4.814,3.252c1.84,0.791,3.797,1.189,5.883,1.189c2.832,0,5.408-0.741,7.726-2.223
				c2.313-1.477,4.14-3.364,5.474-5.657v6.88c0,0.664,0.332,1,1,1c0.664,0,0.999-0.336,0.999-1V42.545
				c0-2.086-0.405-4.043-1.221-5.88C254.611,34.833,253.512,33.237,252.137,31.88z M253.573,47.767
				c-0.706,1.605-1.654,3.002-2.839,4.189c-1.191,1.19-2.593,2.131-4.194,2.819c-1.606,0.685-3.306,1.028-5.097,1.028
				c-1.793,0-3.489-0.344-5.094-1.028c-1.612-0.688-3.005-1.629-4.194-2.819c-1.184-1.188-2.127-2.584-2.81-4.189
				c-0.692-1.606-1.04-3.306-1.04-5.097c0-1.79,0.348-3.492,1.04-5.098c0.683-1.603,1.626-3,2.81-4.19
				c1.189-1.188,2.582-2.134,4.194-2.847c1.604-0.708,3.301-1.064,5.094-1.064c1.791,0,3.49,0.356,5.097,1.064
				c1.602,0.712,3.003,1.659,4.194,2.847c1.185,1.19,2.133,2.588,2.839,4.19c0.713,1.606,1.069,3.308,1.069,5.098
				C254.643,44.461,254.286,46.16,253.573,47.767z"/>
			<linearGradient id="SVGID_6_" gradientUnits="userSpaceOnUse" x1="274.3125" y1="17.9634" x2="274.3125" y2="57.8071">
				<stop  offset="0" style="stop-color:#009EDB"/>
				<stop  offset="1" style="stop-color:#005E9E"/>
			</linearGradient>
			<path fill="url(#SVGID_6_)" d="M288.479,17.963c-0.664,0-1,0.336-1,1.004v16.385c-1.335-2.291-3.148-4.181-5.44-5.659
				c-2.298-1.482-4.864-2.223-7.693-2.223c-2.086,0-4.056,0.397-5.912,1.187c-1.855,0.795-3.475,1.878-4.846,3.256
				c-1.381,1.376-2.464,2.98-3.251,4.816c-0.795,1.835-1.189,3.797-1.189,5.878c0,2.086,0.402,4.057,1.218,5.912
				c0.812,1.854,1.908,3.469,3.284,4.846c1.373,1.377,2.978,2.463,4.814,3.252c1.836,0.791,3.796,1.189,5.882,1.189
				c2.829,0,5.403-0.697,7.724-2.097c2.314-1.396,4.118-3.242,5.41-5.534v6.631c0,0.664,0.336,1,1,1s0.999-0.336,0.999-1V18.968
				C289.478,18.299,289.143,17.963,288.479,17.963z M287.479,43.108c-0.089,1.75-0.479,3.388-1.188,4.911
				c-0.712,1.52-1.656,2.866-2.848,4.032c-1.193,1.167-2.563,2.083-4.129,2.755c-1.564,0.661-3.221,0.997-4.97,0.997
				c-1.796,0-3.493-0.354-5.099-1.062s-3.005-1.66-4.196-2.846c-1.181-1.192-2.13-2.585-2.844-4.191
				c-0.706-1.604-1.059-3.304-1.059-5.098s0.353-3.491,1.059-5.097c0.714-1.604,1.663-3.002,2.844-4.19
				c1.191-1.188,2.591-2.127,4.196-2.815c1.605-0.686,3.303-1.034,5.099-1.034c1.793,0,3.489,0.348,5.093,1.034
				c1.611,0.688,3.003,1.628,4.194,2.815c1.187,1.188,2.126,2.587,2.811,4.19c0.693,1.605,1.036,3.303,1.036,5.097V43.108z"/>
			<linearGradient id="SVGID_7_" gradientUnits="userSpaceOnUse" x1="294.1738" y1="27.5352" x2="294.1738" y2="57.8696">
				<stop  offset="0" style="stop-color:#009EDB"/>
				<stop  offset="1" style="stop-color:#005E9E"/>
			</linearGradient>
			<path fill="url(#SVGID_7_)" d="M294.17,27.535c-0.665,0-0.996,0.333-0.996,1.002v28.329c0,0.669,0.331,1.003,0.996,1.003
				c0.668,0,1.003-0.334,1.003-1.003V28.537C295.173,27.868,294.838,27.535,294.17,27.535z"/>
			<linearGradient id="SVGID_8_" gradientUnits="userSpaceOnUse" x1="294.0146" y1="19.7783" x2="294.0146" y2="23.0947">
				<stop  offset="0" style="stop-color:#009EDB"/>
				<stop  offset="1" style="stop-color:#005E9E"/>
			</linearGradient>
			<path fill="url(#SVGID_8_)" d="M293.983,19.778c-0.457,0-0.848,0.168-1.16,0.501c-0.313,0.333-0.464,0.729-0.464,1.188
				c0,0.46,0.15,0.847,0.464,1.155c0.312,0.315,0.703,0.473,1.16,0.473c0.46,0,0.854-0.158,1.189-0.473
				c0.333-0.308,0.497-0.694,0.497-1.155c0-0.458-0.164-0.854-0.497-1.188C294.838,19.946,294.443,19.778,293.983,19.778z"/>
			<linearGradient id="SVGID_9_" gradientUnits="userSpaceOnUse" x1="313.2783" y1="27.4707" x2="313.2783" y2="57.8071">
				<stop  offset="0" style="stop-color:#009EDB"/>
				<stop  offset="1" style="stop-color:#005E9E"/>
			</linearGradient>
			<path fill="url(#SVGID_9_)" d="M327.222,36.76c-0.805-1.856-1.906-3.47-3.278-4.847c-1.375-1.378-2.979-2.461-4.816-3.256
				c-1.837-0.789-3.792-1.187-5.883-1.187c-2.083,0-4.041,0.397-5.875,1.187c-1.838,0.795-3.443,1.878-4.814,3.256
				c-1.374,1.376-2.465,2.99-3.252,4.847c-0.799,1.856-1.191,3.828-1.191,5.91c0,2.086,0.393,4.045,1.191,5.881
				c0.787,1.833,1.878,3.438,3.252,4.814c1.371,1.377,2.977,2.463,4.814,3.252c1.834,0.791,3.792,1.189,5.875,1.189
				c2.091,0,4.056-0.398,5.913-1.189c1.856-0.789,3.473-1.875,4.849-3.252c1.371-1.377,2.46-2.981,3.249-4.814
				c0.794-1.836,1.19-3.795,1.19-5.881C328.445,40.588,328.041,38.616,327.222,36.76z M325.377,47.767
				c-0.707,1.605-1.655,3.002-2.841,4.189c-1.187,1.19-2.586,2.131-4.194,2.819c-1.602,0.685-3.303,1.028-5.098,1.028
				c-1.789,0-3.494-0.344-5.098-1.028c-1.603-0.688-3.001-1.629-4.19-2.819c-1.181-1.188-2.119-2.584-2.812-4.189
				c-0.69-1.606-1.029-3.306-1.029-5.097c0-1.79,0.339-3.492,1.029-5.098c0.692-1.603,1.631-3,2.812-4.19
				c1.189-1.188,2.588-2.134,4.19-2.847c1.604-0.708,3.309-1.064,5.098-1.064c1.795,0,3.496,0.356,5.098,1.064
				c1.608,0.712,3.008,1.659,4.194,2.847c1.186,1.19,2.134,2.588,2.841,4.19c0.712,1.606,1.071,3.308,1.071,5.098
				C326.448,44.461,326.089,46.16,325.377,47.767z"/>
		</g>
		<linearGradient id="SVGID_10_" gradientUnits="userSpaceOnUse" x1="72.7881" y1="27.3921" x2="72.7881" y2="57.7925">
			<stop  offset="0" style="stop-color:#FFC20E"/>
			<stop  offset="1" style="stop-color:#F58220"/>
		</linearGradient>
		<path fill="url(#SVGID_10_)" d="M80.732,30.678c-1.022-1.02-2.223-1.826-3.594-2.407c-1.377-0.586-2.838-0.879-4.381-0.879
			c-1.419,0-2.751,0.251-4.004,0.753c-1.251,0.498-2.356,1.167-3.313,2.003v-0.815c0-0.542-0.187-1.001-0.561-1.377
			c-0.376-0.374-0.838-0.564-1.375-0.564c-0.542,0-1,0.19-1.38,0.564c-0.372,0.375-0.561,0.834-0.561,1.377v26.517
			c0,0.542,0.189,0.999,0.561,1.377c0.38,0.376,0.837,0.564,1.38,0.564c0.538,0,0.999-0.188,1.375-0.564
			c0.375-0.378,0.561-0.835,0.561-1.377V38.338c0.045-0.957,0.251-1.866,0.626-2.718c0.376-0.853,0.895-1.596,1.562-2.223
			c0.669-0.625,1.441-1.123,2.311-1.5c0.88-0.377,1.818-0.563,2.818-0.563c0.999,0,1.948,0.187,2.848,0.563
			c0.895,0.376,1.676,0.896,2.344,1.564c0.667,0.667,1.198,1.446,1.598,2.344c0.392,0.898,0.592,1.846,0.592,2.845v17.2
			c0,0.542,0.185,0.999,0.563,1.377c0.374,0.376,0.831,0.564,1.379,0.564c0.539,0,0.996-0.188,1.369-0.564
			c0.38-0.378,0.565-0.835,0.565-1.377v-17.2c0-1.542-0.292-3-0.875-4.378C82.553,32.897,81.751,31.697,80.732,30.678z"/>
		<linearGradient id="SVGID_11_" gradientUnits="userSpaceOnUse" x1="102.0605" y1="27.4868" x2="102.0605" y2="57.6978">
			<stop  offset="0" style="stop-color:#FFC20E"/>
			<stop  offset="1" style="stop-color:#F58220"/>
		</linearGradient>
		<path fill="url(#SVGID_11_)" d="M115.914,36.714c-0.835-1.818-1.939-3.411-3.314-4.787c-1.376-1.376-2.97-2.458-4.785-3.253
			c-1.814-0.793-3.699-1.188-5.662-1.188c-2.167,0.083-4.182,0.53-6.036,1.346c-1.853,0.813-3.458,1.897-4.815,3.252
			c-1.354,1.354-2.418,2.938-3.19,4.755c-0.771,1.811-1.155,3.762-1.155,5.844c0,2.169,0.394,4.169,1.187,6.005
			c0.791,1.835,1.877,3.421,3.253,4.756c1.374,1.332,2.973,2.372,4.785,3.126c1.813,0.751,3.759,1.126,5.846,1.126
			c2.251,0,4.243-0.323,5.973-0.97c1.73-0.648,3.285-1.741,4.66-3.282c0.374-0.378,0.564-0.835,0.564-1.377s-0.19-1-0.564-1.38
			c-0.376-0.372-0.832-0.562-1.375-0.562c-0.545,0-1,0.189-1.376,0.562c-1.044,1.006-2.231,1.784-3.564,2.349
			c-1.336,0.562-2.775,0.842-4.318,0.842c-1.378,0-2.686-0.238-3.938-0.717c-1.252-0.479-2.37-1.136-3.348-1.971
			c-0.978-0.834-1.806-1.823-2.472-2.971c-0.667-1.146-1.105-2.385-1.312-3.72h24.269c0.457,0,0.895-0.171,1.309-0.503
			c0.419-0.331,0.627-0.812,0.627-1.438C117.164,40.476,116.748,38.525,115.914,36.714z M91.022,40.623
			c0.249-1.293,0.695-2.502,1.342-3.628c0.645-1.127,1.461-2.099,2.441-2.912c0.976-0.81,2.085-1.456,3.316-1.936
			c1.228-0.478,2.527-0.718,3.906-0.718c1.375,0,2.677,0.24,3.911,0.718c1.23,0.48,2.333,1.126,3.312,1.936
			c0.98,0.813,1.805,1.785,2.47,2.912c0.669,1.125,1.127,2.335,1.378,3.628H91.022z"/>
	</g>
	<g>
		<linearGradient id="SVGID_12_" gradientUnits="userSpaceOnUse" x1="42.062" y1="25.9268" x2="42.062" y2="59.0737">
			<stop  offset="0" style="stop-color:#FFC20E"/>
			<stop  offset="1" style="stop-color:#F58220"/>
		</linearGradient>
		<path fill="url(#SVGID_12_)" d="M42.062,25.927c-9.155,0-16.574,7.421-16.574,16.573s7.419,16.573,16.574,16.573
			S58.636,51.652,58.636,42.5S51.217,25.927,42.062,25.927z M35.15,52.348V32.652L46.046,42.5L35.15,52.348z M51.918,43.441
			l-6.619,6.618v-3.766l3.793-3.794l-3.793-3.792v-3.764l6.619,6.617C52.438,42.08,52.438,42.925,51.918,43.441z"/>
		<linearGradient id="SVGID_13_" gradientUnits="userSpaceOnUse" x1="35.7402" y1="17.6758" x2="35.7402" y2="67.3579">
			<stop  offset="0" style="stop-color:#FFC20E"/>
			<stop  offset="1" style="stop-color:#F58220"/>
		</linearGradient>
		<path fill="url(#SVGID_13_)" d="M52.57,61.263c-3.352,1.986-7.191,3.037-11.11,3.037l0,0c-12.019,0-21.801-9.781-21.801-21.8
			c0-11.598,9.065-21.161,20.633-21.767c0.844-0.048,1.49-0.764,1.446-1.605c-0.045-0.848-0.763-1.499-1.605-1.45
			C26.94,18.376,16.604,29.277,16.604,42.5c0,13.705,11.151,24.857,24.855,24.857l0,0c4.467,0,8.846-1.201,12.667-3.469
			c0.728-0.432,0.965-1.368,0.537-2.092C54.229,61.067,53.294,60.832,52.57,61.263z"/>
		<linearGradient id="SVGID_14_" gradientUnits="userSpaceOnUse" x1="37.1162" y1="10.1196" x2="37.1162" y2="74.8813">
			<stop  offset="0" style="stop-color:#FFC20E"/>
			<stop  offset="1" style="stop-color:#F58220"/>
		</linearGradient>
		<path fill="url(#SVGID_14_)" d="M64.689,62.863c-0.605-0.588-1.573-0.57-2.161,0.037c-5.577,5.754-13.057,8.924-21.068,8.924
			c-16.168,0-29.324-13.154-29.324-29.324c0-16.169,13.156-29.324,29.324-29.324c7.834,0,15.196,3.05,20.736,8.59
			c0.596,0.596,1.564,0.596,2.16,0c0.597-0.598,0.597-1.565,0-2.161C58.24,13.489,50.108,10.12,41.46,10.12
			c-17.855,0-32.38,14.526-32.38,32.38c0,17.854,14.525,32.381,32.38,32.381c8.844,0,17.106-3.502,23.262-9.856
			C65.31,64.418,65.293,63.449,64.689,62.863z"/>
		<linearGradient id="SVGID_15_" gradientUnits="userSpaceOnUse" x1="29.4429" y1="2.5" x2="29.4429" y2="82.5005">
			<stop  offset="0" style="stop-color:#FFC20E"/>
			<stop  offset="1" style="stop-color:#F58220"/>
		</linearGradient>
		<path fill="url(#SVGID_15_)" d="M45.601,79.225c-1.331,0.145-2.696,0.217-4.046,0.219C21.184,79.443,4.609,62.87,4.609,42.5
			c0-20.373,16.574-36.941,36.945-36.941c4.729,0,9.331,0.879,13.681,2.615c0.786,0.313,1.673-0.067,1.986-0.852
			s-0.069-1.675-0.853-1.987C51.657,3.455,46.674,2.5,41.555,2.5c-22.058,0-40,17.945-40,40s17.942,40,40,40
			c1.462,0,2.935-0.081,4.378-0.238c0.839-0.091,1.445-0.847,1.355-1.685C47.194,79.738,46.441,79.137,45.601,79.225z"/>
	</g>
</g>
</svg>
