<svg version="1.1" xmlns="http://www.w3.org/2000/svg" xmlns:xlink="http://www.w3.org/1999/xlink" preserveAspectRatio="xMidYMid meet" viewBox="0 0 640 640" width="640" height="640"><defs><path d="M345.28 169.11C345.28 168.14 345.28 163.25 345.28 154.45L505.28 114.45L505.28 192.85C436.48 210.13 398.26 219.73 390.62 221.65C375.89 223.41 365.38 236.79 367.15 251.51C368.92 266.24 382.29 276.75 397.02 274.98C397.02 274.98 397.02 274.98 397.02 274.98C397.44 274.98 399.58 274.98 403.42 274.98L538.35 240.31L540.22 240.31L545.28 237.91C547.68 236.31 549.02 235.42 549.28 235.25C550.58 234.04 551.74 232.7 552.75 231.25C553.79 230.02 554.68 228.68 555.42 227.25C556.22 225.75 556.76 224.13 557.02 222.45C557.26 220.77 557.26 219.06 557.02 217.38C557.94 216.34 558.5 215.03 558.62 213.65C558.62 200.31 558.62 93.65 558.62 80.31C559.05 65.59 547.46 53.31 532.74 52.88C530.32 52.81 527.9 53.06 525.55 53.65C504.22 58.98 333.55 101.65 312.22 106.98C300.02 109.99 291.58 121.1 291.95 133.65C291.95 137.19 291.95 165.57 291.95 169.11C291.95 183.84 303.89 195.78 318.62 195.78C333.34 195.78 345.28 183.84 345.28 169.11ZM577.55 542.45L337.55 302.45L337.55 302.45C193.55 158.45 113.55 78.45 97.55 62.45C85.9 53.43 69.15 55.57 60.14 67.22C52.88 76.6 52.69 89.66 59.68 99.25C75.17 114.71 152.59 192.05 291.95 331.25C291.95 378.29 291.95 404.42 291.95 409.65C279.49 403.56 265.81 400.37 251.95 400.31C200.4 400.31 158.62 442.1 158.62 493.65C158.62 545.19 200.4 586.98 251.95 586.98C303.5 586.98 345.28 545.19 345.28 493.65C345.28 486.38 345.28 450.02 345.28 384.58C461.92 501.38 526.72 566.27 539.68 579.25C550.05 589.7 566.94 589.77 577.39 579.4C577.45 579.35 577.5 579.3 577.55 579.25C588.01 568.88 588.07 551.99 577.7 541.54C577.65 541.48 577.6 541.43 577.55 541.38C577.55 541.52 577.55 541.88 577.55 542.45ZM211.95 493.65C211.95 471.56 229.86 453.65 251.95 453.65C274.04 453.65 291.95 471.56 291.95 493.65C291.95 515.74 274.04 533.65 251.95 533.65C229.86 533.65 211.95 515.74 211.95 493.65Z" id="d4RI2Z3l3x"></path></defs><g><g><g><use xlink:href="#d4RI2Z3l3x" opacity="1" fill="#ffffff" fill-opacity="1"></use><g><use xlink:href="#d4RI2Z3l3x" opacity="1" fill-opacity="0" stroke="#000000" stroke-width="1" stroke-opacity="0"></use></g></g></g></g></svg>
